<svg xmlns="http://www.w3.org/2000/svg" viewBox="0 0 402.33 331.67">
<defs>
<style>.cls-1{fill:#fff;}</style>
</defs>
<title>bock</title>
<g id="Lager_11" data-name="Lager 11">
<polygon class="cls-1" points="16.58 189.69 9.12 175.51 6.88 158.34 11.36 145.65 20.32 132.96 32.26 126.24 41.96 124 50.17 124 62.12 125.49 75.55 132.21 94.96 152.37 164.38 221.79 326.37 18.75 334.58 12.78 345.77 9.04 357.34 8.67 366.3 9.42 375.26 13.9 383.47 19.87 389.44 28.08 393.17 35.54 394.67 43.01 394.67 54.95 393.17 62.42 389.44 70.63 200.59 310.24 190.14 319.2 179.69 323.68 169.98 325.17 157.29 323.68 146.09 318.45 137.14 310.99 72.94 246.79 16.58 189.69"/></g></svg>
