<?xml version="1.0" encoding="utf-8"?>
<!-- Generator: Adobe Illustrator 23.1.1, SVG Export Plug-In . SVG Version: 6.00 Build 0)  -->
<svg version="1.1" id="Lager_1" xmlns="http://www.w3.org/2000/svg" xmlns:xlink="http://www.w3.org/1999/xlink" x="0px" y="0px"
	 viewBox="0 0 163.5 163.5" style="enable-background:new 0 0 163.5 163.5;" xml:space="preserve">
<g>
	<path d="M110-0.8L148.5-1c4,0,7.9,1.6,10.7,4.4c2.8,2.8,4.4,6.7,4.4,10.7l-0.2,38.4c0,8.3-6.8,14.9-15,14.9c0,0-0.1,0-0.1,0
		c-8.3,0-15-6.8-14.9-15.1l0-1.9l-41,41c-2.9,2.9-6.8,4.4-10.6,4.4c-3.8,0-7.7-1.5-10.6-4.4c-5.9-5.9-5.9-15.4,0-21.2l41-41l-1.9,0
		c0,0-0.1,0-0.1,0c-8.2,0-15-6.7-15-14.9C95.1,6,101.8-0.7,110-0.8z"/>
	<path d="M0,14C0,5.7,6.7-1,15-1h44.9c8.3,0,15,6.7,15,15c0,8.3-6.7,15-15,15H30v103.5h103.5v-29.9c0-8.3,6.7-15,15-15
		c8.3,0,15,6.7,15,15v44.9c0,8.3-6.7,15-15,15H15c-8.3,0-15-6.7-15-15V14z"/>
</g>
</svg>
