<svg xmlns="http://www.w3.org/2000/svg" width="309.04" height="693.2" viewBox="0 0 309.04 693.2"><title>Rityta 5</title><path d="M160.16,313.89s-6.33,1.15-6.42,1.15-4.8,4.39-4.8,4.39l-2.2,4.23L144,324.85l-1.78-.48-.88,1.25s-3,.15-3.18.06-1.71-1-1.71-1l-3.08,1-6,3.91-8.77.2-1.72,1.55-1.51.26-1.46-1.18-5.2-.63.92,4.6-1.54,3.93L113,348.63l5.39-3.08,1.32.7c-.73,1,.58,2.39.42,4.22-.17,2.13,1.07,1.82,1.47,3.2s-3.51,3.51-5.06,4.8-2,1.24-2.94,2.67,0,.93,1.07,1.51-.94,1.29-1.87,2.18-.09,1.15-.17,2.92-1.83.54-2.76-.71-.4.63-.8,1.65-3-1.07-3.47-1.82-.44-.22-.75.88-2.09-1.19-4.22,0-2.85,7.92-2.8,10.27a1.87,1.87,0,0,0,.36,1.19l-3,2.07-2.49-1.9L80.3,376.71,77,378.26l-2.16-3.14L73,367l-3.16-3.64s-3.71-2.46-3.56-2.46,3.82-3.76,3.82-3.76H68.3l-.38-1.45-2.67.5-6.57-11.08L46,343.13l.42-3.1-4-12.22.27-4.4,2.8-4.89-.49-9.29L48.56,304l-4.49-12.58,6.31-8.26L49.14,275,55,269.87l3.55-7.56,4.54-5.68,7-4.49,6.18-1.29L90,257.47l3.2-.84,3.15-8-.89-14-9.68-7.19,17.06-24.71.1-.37,8.83,6.41.18,1.78,1.92,1.1-.44,3,4.23,3.26.75,2.9,3.67,1.27,2.49,3.11.62,3.83,4.21,4v2.61l1.68.71v-4l1.64.51,1.06,5.18,5.18,5.19v3.34l3.35,3v-1.95l2.08.29,10,9.72-3.52,5.93-.44,4.59,1.16,3.82s-2.91,2.67-3,2.67-1.24-.78-1.24-.78l-1.9-.14c-.09,0-2.55,3-2.55,3l-1.74.18s-1.45-2-1.57-2.11a23.51,23.51,0,0,0-2.52,0l-1.48,1.75-2-.41-.35,1.51,5.18,6.4-1.3,1.68,0,2.88,1.09.32,1.28-1.24,1.69,1.3-.74,2.14,0,2,16.48,15Z" fill="#fff" stroke="#000" stroke-miterlimit="10"/><path d="M150.5,451.71a12.41,12.41,0,0,1-2.23.21c-2,0-7.11,6.66-8.93,7.33s-2.49.09-3.47-.22-.93-2.67-.62-3.38-1.11-.71-1.78-.63-1.46-.61-2.57-1.55-2.27,0-3.43,0-1.86,2.09-3,3.15-.64,2-.15,2.94-.27,1.95-1.24,3-2.18.84-3.43.71-4.3,3.91-4.3,3.91a21.38,21.38,0,0,1-2.54-4.71c-1.91-4.53-7.91-5.73-9.24-5.87s-2.76-1.9-3.11-2.48-.89.4-2.36,1.06-.49,1.11-.49,2.14-3.77.49-5.46,0a.61.61,0,0,0-.53.05h0l-4.76-3.65-1.42-7.47L80.73,446l-.22,3.25-5.2-7.65L75,438.81l-4.49-2.27-3.87-7-.89-4.27L63,422.5l-.35-3.6L50.47,404.06l2-6.09,2.76-.75,1.78-7.65L50,378l-3.51-.49-4.26-6L46,343.13l12.67,1.95,6.57,11.08,2.67-.5.38,1.45h1.78s-3.67,3.76-3.82,3.76,3.56,2.46,3.56,2.46L73,367l1.9,8.15L77,378.26l3.26-1.55,12.38,2.67,2.49,1.9,3-2.07c.72.92,2.35.66,3.24,1.34,1.15.89.35,2.18.75,3.83s2.58,1.28,4.13.71,3.12.26,4.18.71.85-.8.8-1.52a1.4,1.4,0,0,1,1.51-1.5c1.11,0,1,2.53,2.58,5.46s2.09,2.89,4,4.75,3.11,2.8,3.52,4.09,1.06,1.56,2.08,2.27,1,2.31,1.29,4.22,1.11,3.25,2.75,5.51,4.23,1.78,6.14,1.91,2.17,5.29,2.17,5.29l4.27,5.42.45,3.24-4.72,8,6.27,9.29,3.11-.71-.53,2.94Z" fill="#fff" stroke="#000" stroke-miterlimit="10"/><path d="M167,453c-.77,1.12-2.19,3.67-2.25,5.21s-3.56,2.78-5,3.73-1.18,3.56-1,4.68-.72,1.84-1.72,2.61-1.42.18-2.82-.89-2.4,1.84-2.19,3-.27,1.13-1.81,1.66,2,4.09,2.79,5.75a22.63,22.63,0,0,1,1.21,5.62l-.27.25c-.58.52-.67.89-1.43.42-.52-.32-1.11-1.3-1.64-1.42-.11.87-1.86,2.26-2.72,2.05,0-1.06-1.15-1.63-1.91-2.24s-1.31-1.29-2.3-1.12c0,.63.29,2.54-.26,2.88a1.12,1.12,0,0,1-.7.08.63.63,0,0,1-.3-.1c-.09-.05-.16-.15-.25-.18s-.21,0-.3.1c-.3.13-.61.16-.78.47s-.18.54.1.62.65.06,1,.12.69.18.78.48a.82.82,0,0,1-.16.71,1,1,0,0,1-.93.28,1.42,1.42,0,0,1-.64-.24,2.82,2.82,0,0,0-.56-.31.76.76,0,0,1-.36.49,1.13,1.13,0,0,1-.65.1c-.18,0-.26-.28-.39-.41a.68.68,0,0,0-.53-.18,1.39,1.39,0,0,1-.55.73,1.22,1.22,0,0,1-.73.14c-.1-.19-.45-.32-.6-.47a1.55,1.55,0,0,1-.32-.54c-.07-.21-.19-.46,0-.67s.4-.36.29-.63a.56.56,0,0,0-.79-.18,2.7,2.7,0,0,0-.42.41,6.89,6.89,0,0,1-.7.62c-.28.2-.57.39-.83.6-.7.54-1.13.32-1.83-.06-1.26-.71-1.49.38-.74,1.24s1.14,1.48,2.33,1.19c1-.23,1.64-1.14,2.71-.59.4.21.81.53,1.23.74l-.63,3.54-1.6,1.47-4-.89-4,2.22-.66.64s-1.61-3.66-1.61-5.17-.44-1.2-1.73-1.6-1.12-2.27-.94-4.18-.71-1.55-1.77-1.91-.89-2.61-.54-4.44-.75-1.65-1.68-2-.81-2.36-.58-3.52a6.38,6.38,0,0,0-1.29-4.7c-.54-.69-1.06-1.19-1.64-2,0,0,3.06-4,4.3-3.91s2.45.36,3.43-.71,1.73-2.05,1.24-3-1-1.87.15-2.94,1.85-3.15,3-3.15,2.31-.93,3.43,0,1.91,1.65,2.57,1.55,2.09-.08,1.78.63-.35,3.06.62,3.38,1.65.89,3.47.22,6.93-7.29,8.93-7.33a12.41,12.41,0,0,0,2.23-.21,4.38,4.38,0,0,0,2.92-2c1.29-2,4.75-1.91,6.71-4,1.76,1.69,6.29,3.65,7.35,4.18C168.91,450.54,167.72,451.84,167,453Z" fill="#fff" stroke="#000" stroke-miterlimit="10"/><path d="M306.1,162.89c-1.51.46-1.53,1.27-1.84,1.87s-.85.17-2.36-1.45-.37.76-.53,2-.91-.24-1.87-2-.88.69-1.77,1.71-1,.6-1.45-1.33-1.22-.13-1.22,1-.58.22-.95-1-.81,1.6-.71,2.56-.81-.2-1.72-1.36-.62.2-1.4-1.6-1.35.73-1.19,1.62-.07,1.2-.74,1.83-.15.75-.56,2.42-1.79-.49-2.86-1.51-1.84-.63-2.6-1.29a3.14,3.14,0,0,1-1.18-2.16c-.29-1.2-1.71-1.82-2.91-3.33s-1.06.51,0,1.67.64,2,1.09,3.33-.82,1.82-1.05,2.64-1.33.27-1.49-.71-1.42-.06-2.55.6,0-1.42.22-2.18-1.69-1.06-2.49-1.24-1.82-1.33-3.17-2.8,2.48,4,2.73,5.29-.27.62-.47,1.26.65,1.43,1.16,2.36,0,.93-1.27,1.36-.42-1.6-1.22-2.67-.87.82-.69,1.89-.55,1.82-1.31,2.78.85.53,2.13.77.09-1,0-1.91,1.71.93,2.22,1.54-.17.44-.71,1.15,1.45,2,2.25,2.84-.89,1-1.65.43-.64-.4-1.74-.43-1.9-1.51-3.45-1.62,2.68,2.49,3.28,3.51-.55.62-1,.14-1.63-.56-1.49.22-1-1.11-1.89-.69-1.76,0-3.6-.8-.89,1.22.07,2.2,1.17.4,1.75,1,1.29.36,2.13.51-.2.93-.2,1.8-.4.4-1.69.18-.39.93.12,1.57-.67.6-2.36.49-1.49-.24-2.4-1-1.2-.16-1.4.57-.55.23-1.37-.46.42,2,1.26,3.26-1.51-.77-2.2-1.64-.75-.33-1.53.22-.27,1.64.24,2.09-.53,1.11.13,1.89.78-1.47,1-2.34,1,.85,1.31,1.47a8.71,8.71,0,0,1,.69,1.67c.16.55.78-.56,1.69-1.18s.18,2.13-.63,2.25.81,2,1.78,3.15-2.26-1.51-3.17-2.6-.14.06-.42.47-.8-.29-1.8-1.49,2.19,4.66,2.64,6,.07.62-.67.78c-.41.08-.25.73,0,1.41-2.86.82-4.29-1.52-5.58-2.33s-5-1.19-8-1.56-16.13-6.12-18.49-7.19-3.07.36-3.07.36S215.41,202,213.9,204s-3-1.2-3.91-2.17a19.19,19.19,0,0,0-2.36-2.05c-.3-.26-.44-.66-.44-1.91s-1.33-1.69-1.77-2.35a7.1,7.1,0,0,0-3-1.87c-1.34-.53-1.47-1.55-2.22-2.53s-.8-.94-1.69-.94-1.38-1.06-1.43-2.53-1.37-.26-2.84-.53-2.58-1.82-4.09-3.16-2.4.45-3.46-1.2a21.67,21.67,0,0,0-4.27-3.91l-7.86-3.55L158,156.16l-4.88-.45L140.41,146s-1.51-.05-1.65,0-5.2-3.51-5.2-3.51l-4.1-1.25L128.9,140l.66-6.45,8.18-9,4.13-10.76,8.18-6.44.35-12.51s-4.42-6.42-4.46-6.42.95-5.91.95-5.91L152,80l6.2-16.81,9.2-9.67,12.15,5.56s5.33-10.38,5.33-10.49-2-6.31-2-6.31l-.42-9.82,7-1.85s3.55,1.7,3.62,1.78,8.55-1.2,8.62-1.2,15.16,7.13,15.28,7.13,3.74-5.22,3.76-5.28-5.38-3.82-5.38-3.82l4.32-3.45s3.48-7.8,4.13-8.86-3.36-10.27-4.09-11.51,4.17-.85,5.84-.76,3.15-3,3.6-3.93,2.36,2,2.47,3.51a5.21,5.21,0,0,0,1.31,3.47c1,1.29-.25,3.06-.4,4.66s2.66.69,4,.52,1.34,1,2.1,1.93.6.31,1.49.29.39.35,1.13,1.13,1.18.69,2.2,1,1,1.84,1.26,3.13a3.45,3.45,0,0,0,2.76,2.24c.93.14,1.57,2,2.26,3.18s1.6.55,2.23.36,3,4.17,4.51,5.66a3,3,0,0,0,3.93.11c.73-.49,1.33.74,2.35,1.89s.45-.24,1.2-.85,1,.81,1.94,1.7.35-.47,1.33-.85.67.82,1.69,1.71.46.47,1.57.74.65.46,1.05,1.08,1.35,1,3.55,2.07,2.6,5.95,2.85,7.46,2.13.43,3-.22,1.17,2.51,1.58,3.55.46,1.27,1.35,1.74.58.53,1.11,1.33.71.6,1.22,1.4.58.54,1.21,1.54-.85,2-1.92,3-.2,1.13,0,2.6-.59.82-.66,2.29.05,1.18.58,1.87.11,2.15.06,2.77a4.76,4.76,0,0,0,.74,2.09,22,22,0,0,1,1.26,3.14c.27.95-.69,2-1.33,2.33s-.29.62,0,1.35.07.47-.31,1.27a2.14,2.14,0,0,0,.33,2.61c.85.9,2.23-.12,2.72.1s.8.09,2.2-.09.62,2.53.84,3.53.24.31,1.35,2.58-1.77,3.33-3.22,4.09-1,1.86-.78,3.33,1.54,3.29,2.18,4.22.31,1.45.51,2.13,1,1,1.29,1.72,1.62,1.64,2.38,2.73a22.36,22.36,0,0,1,1.57,3.35c.41.8.83,2.89,2,3.6s-.69,2.09-1.82,2.69.56,2.07,1.05,3.22-.11,1-.63,1.78,0,1.35.36,1.89,0,1.8.25,3.33-2.12,4.13-2.34,5.07-.95-.07-1.58,1,.22,3.78.56,4.6.13,1.51.58,2.2.09,1.89.09,2.73,1.24,1.69,1.77,2.27a3,3,0,0,1,1.07,1.6c.4,1.11.49.45,2,1.2s2.71,3.46,3.77,4.53.36,1.6,1.07,3,.53,1.38.76,3.56,2.08,2.77,2.35,4.37S307.62,162.42,306.1,162.89Z" fill="#fff" stroke="#000" stroke-miterlimit="10"/><path d="M259.09,236c-.56,1.09-1.24,1.13-1.29,2s-1.2,2.18-1.55,3.11-.53.32-1.24.11-.12,1.05.24,1.67-4.47,1.76-5.09,3.07-.2,1.48-.29,2.17-1,.8-1.51.16-.29.8-1.1,2.2-.83,1.22-.14,1.67-1.29,2.53-1.92,4a5.36,5.36,0,0,0-.39,2.73c-.05.63-.54,1-.82,1.54s-.54,1.08-1.1,1.11-.71,2.4-1.55,3.55.22,1-.27,2.8-1.35.62-1.8-.22-1,1.09-1.68.51.08.93,0,3.31-.63-.33-.94-1-.73.59-1.33,1.33,0,1.62-.25,3.64-1.17-1.08-2.12-2.91-.48,1.51-.08,3.65-.79-.4-1.53-2.16-.57,1.62-1.73,2.22a2.46,2.46,0,0,1-2.76-.31c-.82-.51-1.22.31-1.55,1.49s.73,1.16,1.42,1.73-1.44,1.14-2.49.58-1.57,1.25-1.82,2.07-.73,1-2.11,1.62.71,1.71,1.2,2.64-1.58.94-1.6,1.22,0,.67-1.07,1.27-1.4-2.49-2.37-4.27-2.36-2-2.49-2.79-1,.71-1.71,1.48.51.65,1.51,1,.06.22-.2.37.42.18,1.29.89-.27,1.34-1,2.36-.69-1.11-1.79-2.2-.25.65,0,1.83l-3.45-1.76-.65-5-3.17-9.3s-2.76-.24-3-.21-6-4.08-6-4.08l-2.1,1-1.81-4.06,1-1.33-2.19-2.67-14.19,6.85L168,264.18s-7.53-.71-7.44-.62l-6.14-5.9-10-9.72-2.08-.29v1.95l-3.35-3v-3.34l-5.18-5.19-1.06-5.18-1.64-.51v4l-1.68-.71v-2.61l-4.21-4-.62-3.83-2.49-3.11-3.67-1.27-.75-2.9-4.23-3.26.44-3-1.92-1.1-.18-1.78L103,202.4l1.59-6.07,2.31-3,0-8.31,4.71-21.24-1.68-4.93-.36-5.2-.67-4.22,10.4.93,9.15-3.78,1.69-4-.59-1.34,4.1,1.25s5.07,3.55,5.2,3.51,1.65,0,1.65,0l12.71,9.68,4.88.45,16.58,19.15,7.86,3.55a21.67,21.67,0,0,1,4.27,3.91c1.06,1.65,1.95-.13,3.46,1.2s2.63,2.89,4.09,3.16,2.8-.93,2.84.53.54,2.53,1.43,2.53.93,0,1.69.94.88,2,2.22,2.53a7.1,7.1,0,0,1,3,1.87c.44.66,1.77,1.11,1.77,2.35s.14,1.65.44,1.91a19.19,19.19,0,0,1,2.36,2.05c.89,1,2.4,4.22,3.91,2.17s7.95-12.79,7.95-12.79.71-1.42,3.07-.36,15.42,6.83,18.49,7.19,6.75.77,8,1.56,2.72,3.15,5.58,2.33c.21.54.49,1.09.62,1.43.28.78-.63.73-.93.67s-.69.15-1.32,1,.22.16,1.32.11-.74,1.65-2.27,1.65-.56,1.09-1.85,1.35.14.76.51,1.09-1.22.6-2.59.58.58,2.65,1.37,4-.64-.18-1.68-1.22-.45,1,0,1.8-.15.38-.93.64-.29,1.21-.49,1.87-.6.38-1.67-.82-.35.77.23,1.44.69.45,1.51,1.45,1.66,1,2.24,1.75.22.58-.33.78.68,1.31,1.6,2.11-1.8.15-3.31-.65.19.76.77,1.12-.51.35,0,1.55.09-.18.56-.64.71.51.64,1.4.13.93,1.11,1.15.6.69,1.07,2.05.31-.78.4-1.87,1.64.73,2.35,2.2-.91,1.36-.89,2,.71.63,1.49,1.25-.09,1.75.71,1.89.22-.85.56-.85.55-.75,1.07-1.4S259.65,234.87,259.09,236Z" fill="#fff" stroke="#000" stroke-miterlimit="10"/><path d="M212,287.77c0,1.14,0,.38-1.32-.2s-1.11,3.67-1,4.69-2,2.54-2.6,2.91-.31.34,0,1.69-1,.2-1.62-.42-.36.31-.93.85.87.82,1.78.95,0,.91-1,1-.84.16-.38,1.46-2.93-2.75-3.82-4-.24.66-1.33.51-.29.75.38,1.75-2,0-1.38.49-.22,1.33-1,.62-.4.62-.49,2-1.31-1.38-2-1.34-.53,1.61-.62,2.63-1.14.58-1.67.58-.31,1.4.24,2.22a2.12,2.12,0,0,1-.06,2.55c-.58.78-.93.2-1.45-.09a1,1,0,0,0-1.44.31c-.31.58-.67.43-1.22-.44s-.87.78-2.65,1.44.83.63,1.52.85,1.77-.25,3.13-.73,2.82,1.53,3.09,2.79-2.4-.22-3.71.05,1.06,1,1.82,1.22,0,1.11-.54,1.27.16.69.65,1.31-.62.64-1.36.18-.46,1.15-1.17,1.64-1.85-1.42-2-2.65-.71-.44-1,.18-.82.69-1,1.52.62.57,1.24.37.21,1.67-.48,1.89-.52.4-.25,1.16.13.91-.4,2.24-.22-1.49-.6-3.29-1.15,2.4-1.51,3.29-2.2-1.62-2.89-2.84.34-.18,1.76.26.49-1.33-.4-2.17-1.13.44-2.07,1.06-1-1.71-1-2.66a3.44,3.44,0,0,0-1-2.23c-.56-.64-1.58-4.57-1.6-5.66a9.74,9.74,0,0,0-1.24-3.71c-.76-1.64-.87-.18-.32.56s.45.75.5,1.84a4.13,4.13,0,0,0,.66,2.44c.51.8.22,2.14-.8,1.69s.51,2.11,1.42,3.27a10.82,10.82,0,0,1,1.65,3.42c.49,1.31-.07,1.6.33,2.66s1.53.67,2.29,1.38-.89,1.56-1.56,1.89,0,.84.45,1.31.26,1.18.22,2.11-.22.67-1.16.36,1.38,1.62,2.38,2.11.07,1-.91,1.47,0,1-.51,1.77-.49-.71-.73-1.91-.71,1.74-1.16,1.87.09,1.06-.29,1.73-1,1-.82,1.64-1.26-.22-1.62-.93-1.33.14-1.69.87.15,1.44.73,2.26-1.44.74-1.84.18-.45-.24-1.6-.44-.34-.78-.34-1.29-.39-.47-.95-.8-.26-1.56-1.06-2.64-.56,1.24-1.25,1.64-.62.67-.62,1.64.27,0,.84,0,.36.18,1.16,1.05.6,1.15.15.86.16.58.94,1.76.06.71.77,2-1.08-.16-1.93.41-1-3.57-1.49-4.84-1.29,2.76-.69,3.38-.09.91-.13,2.15.51,1,1.16,1,.46,0,1.22,1.31a8.75,8.75,0,0,0,2.57,2.44c1,.85,1,.09,1.8.25s-.15,1.64-.89,2.31-.82,0-.95-1.34-.6-.35-1.33.54.15.75.4,1.75-.13.62,0,1.36c0,.11,0,.21,0,.28l-9.93-.88-2.27.84-2-1.69-5.47-.57-2.44-1.56s-6-.22-7.74-.18-10.88-5.91-14.48-7.24-4,1.95-5.82,3a1.73,1.73,0,0,0-.56.49l-1.32-.7L113,348.63l-4.92-10.31,1.54-3.93-.92-4.6,5.2.63,1.46,1.18,1.51-.26,1.72-1.55,8.77-.2,6-3.91,3.08-1s1.51.89,1.71,1,3.18-.06,3.18-.06l.88-1.25,1.78.48,2.78-1.19,2.2-4.23s4.71-4.39,4.8-4.39,6.42-1.15,6.42-1.15l-3.25-5.72-16.48-15,0-2,.74-2.14-1.69-1.3L138.18,289l-1.09-.32,0-2.88,1.3-1.68-5.18-6.4.35-1.51,2,.41,1.48-1.75a23.51,23.51,0,0,1,2.52,0c.12.09,1.57,2.11,1.57,2.11l1.74-.18s2.46-3,2.55-3l1.9.14s1.15.78,1.24.78,3-2.67,3-2.67l-1.16-3.82.44-4.59,3.52-5.93,6.14,5.9c-.09-.09,7.44.62,7.44.62l8.56,2.52,14.19-6.85,2.19,2.67-1,1.33,1.81,4.06,2.1-1s5.72,4.11,6,4.08,3,.21,3,.21l3.17,9.3.65,5,3.45,1.76A3.13,3.13,0,0,1,212,287.77Z" fill="#fff" stroke="#000" stroke-miterlimit="10"/><path d="M170.33,376.49c-.06.75-.06,2.06-.15,3.09s-.4.79-1.4,1.26-1.75-2.24-1.65-3.29-1-1.26-1.91-1.26a1.52,1.52,0,0,1-1.51-1.27c-.06-.6-.6-.2-2.11.31s.56.6,1.29,1.13-.25,1.78,0,2.47-1.18.91-2.62.56-.51.6,0,1a1,1,0,0,1-.13,1.57c-.54.18.33.42,1.57.89s-.26.24-1.18.49.18.42,1.05.86-.36.3-1,.81.71.91,1.68,1.77,0,1.07-.57,1.89a7.48,7.48,0,0,0-.61,4.18c.23.95,1.38,1,2.7,2.2s-.41.42-1.78.8.93,1.84.46,2.17.36,1,.87,1.72-.62.68-1.78.66-.09,1.11.89,1.51-.31,1.27-1.13,2-.25.71.44,1.2.11.22-.35.62-.36.65,0,.71,0,.8-.38,1.33-.15.78.4,1.2-.29.74-.55,1.78,1.4-.15,2.22.42-.45.51-1.8,1.05-.07,1.31.58,1.58.55.55.06,1.55,1.31,1.13,2.14,1.34-.31,2.06-1,3.08,1.47.73,2,.87,0,.82-.68,1.2.09,1.2.57,1.62-1.39,1.4-2.37,1.89.6,1,1.62,1.47,1.2,1.3,2.2,1.83c0,0-2.21,8.16-2.8,9.94s-3,3.67-4.15,5.45c-.28.45,0,1,.59,1.57-2,2.13-5.42,2-6.71,4a4.38,4.38,0,0,1-2.92,2l-4.27-7.21.53-2.94-3.11.71L137.38,433l4.72-8-.45-3.24-4.27-5.42s-.26-5.16-2.17-5.29-4.49.36-6.14-1.91-2.48-3.6-2.75-5.51-.27-3.51-1.29-4.22-1.69-1-2.08-2.27-1.56-2.22-3.52-4.09-2.48-1.82-4-4.75-1.47-5.51-2.58-5.46a1.4,1.4,0,0,0-1.51,1.5c0,.72.27,2-.8,1.52s-2.62-1.29-4.18-.71-3.73.93-4.13-.71.4-2.94-.75-3.83c-.89-.68-2.52-.42-3.24-1.34a1.87,1.87,0,0,1-.36-1.19c0-2.35.66-9.06,2.8-10.27s3.91,1.12,4.22,0,.26-1.64.75-.88,3.07,2.84,3.47,1.82-.13-2.89.8-1.65,2.66,2.49,2.76.71-.76-2,.17-2.92,2.89-1.6,1.87-2.18-2-.09-1.07-1.51,1.38-1.39,2.94-2.67,5.46-3.42,5.06-4.8-1.64-1.07-1.47-3.2c.16-1.83-1.15-3.19-.42-4.22a1.73,1.73,0,0,1,.56-.49c1.78-1.07,2.22-4.35,5.82-3S138.9,350,140.58,350s7.74.18,7.74.18l2.44,1.56,5.47.57,2,1.69,2.27-.84,9.93.88c0,.41-.27.37-1,.87s-.65,1.07-.49,2.51-.07,1-.71,1.94-.36.57.09,1.19-.63,1.12-1.11,1.56-.31.25-.38,1.47.27,1.22-.29,1.86-.05,1,.26,1.42-.64.5-1,.89-.13.62.49,1,.18.64-.18,1,.43,0,1.4.58-.57,2.15-.26,2.55a2.32,2.32,0,0,1-.18,2.4c-.6.85,1.38-1,2.18-1.45S170.4,375.73,170.33,376.49Z" fill="#fff" stroke="#000" stroke-miterlimit="10"/><path d="M195,455.82,191.39,462s-.36,5-.48,5.1-3.61,3.14-3.61,3.14l-1.13,3.05-3,1-4.47,1.27-2.52,2.46-2.84-.48-1.52.4a1.7,1.7,0,0,1,.35-1.06c.44-.72.89-1.05.74-1.9,0-.06-.07-.08-.12-.18-.7-.3-.73-.28-1.07-1s-.88-.82-1.45-.18-.74.83-1.61.83c-.45,0-1.73-.24-1.59.47.55,0,1.2.2,1,.76s-.49.74-.45,1.49c1,0,.66-.57.88-1.24a1.91,1.91,0,0,1,1.77-.87,4,4,0,0,0,.07.86.82.82,0,0,1,.18.36l.1,0c.34.68-.21,1.09-.12,1.71a.75.75,0,0,0,.1.25l-1.1,1,1.78,3.44-2.82,1.62a1.41,1.41,0,0,0-.37-.36c-.52-.35-.92-.41-1.14-1a6.75,6.75,0,0,0-.66-1.54c-2-.11-.56,2.24-.21,3.11a4.9,4.9,0,0,1,.64,1.93c0,.21.06.9-.11,1s-.85,0-1,0c.49.42.35,1.23.32,1.84-1,0-1.25-1.17-1.65-1.75-1.24,1.24-1.39-.27-1.91-1.21a3.1,3.1,0,0,0-.93-.91,5.57,5.57,0,0,1-.65-.73.85.85,0,0,0-.86-.21c-.31.08-.24.27-.29.54-.17,0-.25-.25-.36-.38a2.31,2.31,0,0,0-.62-.5c-.51-.25-1.06-.35-1.57-.6s-.47.42-.37.77a5.57,5.57,0,0,1,.27,1.72c-.46,0-1-.53-1.34-.78s-.66-.61-1-.81-.29-.21-.4-.13a22.63,22.63,0,0,0-1.21-5.62c-.83-1.66-4.33-5.21-2.79-5.75s2-.47,1.81-1.66.8-4.08,2.19-3S156,470,157,469.2s1.9-1.48,1.72-2.61-.42-3.73,1-4.68,4.92-2.19,5-3.73,1.48-4.09,2.25-5.21,2-2.43.53-3.14c-1.06-.53-5.59-2.49-7.35-4.18-.6-.58-.87-1.12-.59-1.57,1.13-1.78,3.56-3.67,4.15-5.45s2.8-9.94,2.8-9.94l.31.14c1.27.51,1.13,0,2.18-.29s2.35.49,3.31.85.35,1.33-.29,2.09-.15,1.55.53,2.66-.17,1.25,1.09,2.07,1.38-1.33,2-2.45,3.22-2.15,4.6-2.82,1.69.71,1.64,1.65.47.55.89,1.08-.69,1.05-1,2.23.86.58,1.67.75,0,.78.24,1.67.55,1,1.31,1.87.42.53,1.44,1.77,1.45-.29,2.36.27-1.2,1.38-.71,2.66,1.42-1.11,1.87-1.64,2,1.25,3.15,1.74.11.33-.2,1.12.53.27,1.15.76.14.82-.42,1.18-.91-.27-2.51-1.2.62.87,1.67,1.77.42,1.25,1.64,1.61.69.71,0,1.57-.94,1-.49,2.38A4,4,0,0,0,195,455.82Z" fill="#fff" stroke="#000" stroke-miterlimit="10"/><path d="M153.59,538.16c.38.89-.71,1.13-1.87,1.36s-1.89,1.25-2.69,1.78-4.12-1.74-6.76-2.81-.15.59.42,1.21,2.16.89,3.7,2.08A7.25,7.25,0,0,1,149,544.5c.41.92-.18.92-1.72.71s.86,1.07,1.57,1,.36.65.59,1.54-.36.74-1.42.74,1.63,3.17,2.33,4.42.13,1.33-1.09,1.27,1.34,2.07,1.07,3-2.76-1.69-4.8-3.58,1.33,3,2,3.67,1.57.89.35,1.42.24.92,1.13,1.6.18.8-.51,1.45-.91.18-1.69-.41c-.59-.46-.46-.11-.73.39a9.86,9.86,0,0,1-1.52-2.58c-.17-.61-.88-.53-2.54-.66s-2.7-1.77-4.15-2.51-2.4.65-3.32,1.33-2.64-.24-3.76-.35-1.33.35-2.16.2-.57,1.19-.6,2.76.54,1.72,1.19,2.39-.89,2.47-.71,3.35-1,2.29-1.72,3.8-5.21-.89-7.29-1-6.46,5.06-7.19,6.34a.85.85,0,0,0-.09.22l-8.62-.37-1.72-3.23-2.34-6.31,1.83-4.68.12-6.4L99,553.3l-.83,2.79-.91.59-2.2-1.48-5.15.35-3.15-.64c.34-.67.68-1.34,1-2a14.3,14.3,0,0,0,1.28-2.82,23.8,23.8,0,0,0,.65-2.48,9.43,9.43,0,0,0,.18-1c0-.39-.17-.75-.12-1.14s.28-1,.36-1.51a6.88,6.88,0,0,1,.39-1.29,5.21,5.21,0,0,1,1-1.82,13.66,13.66,0,0,1,1.5-1.34,15.06,15.06,0,0,1,1.61-1.28,1.49,1.49,0,0,1,1.76,0c1.22.64,2.28-1.13,2.64-2.15a2.89,2.89,0,0,1,.35-.88c.18-.22.58-.36.71-.64a2.29,2.29,0,0,0-.43-2c-.49-.62-.71-1-.36-1.77a1.71,1.71,0,0,0,.17-1,3.56,3.56,0,0,0-.34-.89c-.31-.88-.66-2.35-.15-3.2.32-.55.91-.34,1.3-.7a1.14,1.14,0,0,0,.25-.42h0l3.34-4.7,8.46-1,1.74-2.26,3-.67,1.1-2.09.15-2.11,2.53-.25,2.45,1.27,2.17-1.78.76.67-.58,1a13.28,13.28,0,0,0,1.07,1.26h2.47l4.13,3.38,2.71,2,.62,1.73,1.25,3.33,2.61,2.2,5-1.73,4,4.13.74,3.28a4,4,0,0,1-1.85-.41,20.28,20.28,0,0,0-6.39-1.47c-2.14-.26-2.63-.44-3.6-1.33s-2,.44-3.38,1.51-.35.85.4,1.11,1-.22,1.73-1,.31.53,1.16,1.42,1.2.22,2.31-.49,4.75.49,5.17.49a4.91,4.91,0,0,1,2.4,1.13c1,.8.85-.21,1.8-.18s.63,1.1,0,1.66.48.47.95,1,.83.27,1.22-.14.62.5,1.47,1.09S153.2,537.27,153.59,538.16Z" fill="#fff" stroke="#000" stroke-miterlimit="10"/><path d="M125.57,651.62c-.63,1-2,2.28-2.64,3.35s-.45,1.33-.18,1.86-.41.45-1.16,1.07-1.77-.3-2.13-.59.27-1,.39-2.55-1.66,0-2.19.62-.83-1.21-1.49-2-1.74-.18-2.43.77-.62-.89-.44-2.23-.74.89-1.18,1.49-1.34.24-1.6,1-1,0-1.48.92-1-.59-.42-2.07-2.07,1.15-2.49,2-.94-.41-1.33-.11-.71-.51-.24-1.19-1-.45-1.89-.86-.83.15-1.22,1-1,.32-1.36-.45-.12-.44-.8.21-1-.53-1.27-1.48-.8.47-1,.89-2.25-.09-3-1-.89.77-1.25,1.51-1.39-.2-1.77-1-1.87-.17-2.58,1-.21,1.22.44,1.69.48.65.54,1.6.29.59.76,1.36-.08,1.22-.41,2.1-.77-.14-1.24-.85-.57.41-.8,1.12-.45,0-.74-.77-.74.27-1.31.39-.83-.68-.26-1.36c.41-.5-.38-.31-1-.33,0-.19,1.58-6.17.56-8.38s-1.63-2.58-2.25-2-.89,1.87-1.9.15-1.51-4.35-1-5.45S83,637.82,83,637.82a17.2,17.2,0,0,1,4,2.79c1,1.17,4.69,2.6,5.89,1.49s2.57-3.45,3.86-2.85,3.38.76,4.22,1.82,2.67,5.14,3.4,1.56,2.49-3.93,3-5.25c0,0,2.26,2,3.5,1.47s3-1.19,4.45.09a12.47,12.47,0,0,1,3.15,3.42c.76,1.42,1.69,3.11,2.63,3.56s6,2.4,6,2.4C127.26,649.34,126.14,650.68,125.57,651.62Z" fill="#fff" stroke="#000" stroke-miterlimit="10"/><path d="M84.36,658.76a.82.82,0,0,1-.56-.15c-.45-.41-1.69.77-2.61,1.54s-.8.86-1.07,2-.77.26-1.77.44-.77.77-1.34,2.19-.83.5-2.1,1.48-1.84,4.12-2.16,6.28,1.6,3.74,2,4.33a5.54,5.54,0,0,1,.83,2c.42,1.25.74,2,1.31,3.5s-1.84,3.91-2.05,4.53S74,688,73.25,688.62s-.56,1.36-.68,2.19-1.6.77-2.13.54a2.72,2.72,0,0,0-2.35,0c-1.09.44-1.62-.57-2.87-2.08s-4.08-1-5-.92-.71.62-1.78.21-1.39.18-2.73.44a8.79,8.79,0,0,1-3,.36c-1.66,0-3.35,2.46-4.5,3a2.69,2.69,0,0,1-3-.47c-.89-.65-1.81-.27-3.32-1.07s-1.69-.83-2.73-.71-1.92-.5-2.9-1.48-1.09,0-1.72.5-.89-.29-1.21-.94-.83-.07-2.1.32.11-1,.47-1.69,1.07-.27,2,0,1-1.09,1.54-1.63-.53-1.54-.56-2.28-.65-1.33-2.58-3.64.39-2.2,2.61-1.78,3.41-1.07,4.5-2.31-.11-2.55-.59-3.64-1,.06-1.16.35-.67.06-.73-.62-.57-.42-1.37-.54-.32-1.71.54-2.36-2.64-6.16-3.41-7.47-2.07-5-2.58-6.19-2.34-4.32-2.81-5.48a20.54,20.54,0,0,1-.8-3.67c-.24-1.1-1.9-4-1.54-4.74s3.17,2.13,4.17,2.31,1.28.68,1.78,1.45,1.37.65,2.67.68.86-.68.89-1.54-.24-1.15-1.07-1.81a3,3,0,0,1-1-2.63c0-1.1-1.6-1.07-2.52-2s.8-3,1.43-2.94,1-.82,1.68-1c.44-.14,1.36.49,2.47.82,0,0,.66,6.13,6.55,7.11s3.64-1.07,6-1,3.05.15,3.27-.71A2.51,2.51,0,0,1,53.92,638l.09,0c1.57.27,8.55.77,9.9-.49s.87-2,2.4-2,2.82.07,3.82-1.13,1-1.85,3.4-.33,6.44,2.13,8,2.91c.42.21.95.49,1.52.81,0,0-2.82,4.14-3.29,5.24s0,3.73,1,5.45,1.28.41,1.9-.15,1.22-.24,2.25,2S84.41,658.57,84.36,658.76Z" fill="#fff" stroke="#000" stroke-miterlimit="10"/><path d="M61.52,609.6c-.7,1.1-.8,2.57-1.27,3.57-.89,1.87-3.78,1.73-6.76,2s-2.35,4.18-2.35,7.25,1.91,6.35,2.54,8.13a5.08,5.08,0,0,1,.12,3.82,10,10,0,0,0,.21,3.73l-.09,0a2.51,2.51,0,0,0-2.85,1.49c-.22.86-.93.8-3.27.71s-.08,1.95-6,1-6.55-7.11-6.55-7.11a3.88,3.88,0,0,0,1.8.16c1.87-.32,2.84-7.23,2.22-7.94s-.47-.83-.56-1.8-2,.41-2.43.91-.68.15-.68-.21-1.1-.29-1.36,0-.75-1.44-.75-2.13-.29-.94-.8-.94-.23-.69.13-1.28-.6-.59-1.13-.74-.77-.8-.51-2-.82-3.08-2.07-5.78-3.05-2-4.11-2.37-.84-2.43-.45-3.23-.12-1.09-.48-1.33-.56-1.39-.62-2-1.06-.79-1.8-1.3.23-2.31.74-2.67-.21-.71-.72-.86-.65-1.3-.23-1.8-.39-.45-1.39-.3-.12-1.06.77-1.57-.77-.8-2-.68,0-.89.92-1.07.3-.59-.53-.77.56-1.09,1.51-1.72-.41-.85-1.34-.5.06-.86.6-1.48-.45-.47-1.27-.56.11-1.1.67-1.48,0-.74-.47-1,.36-.36,1-.45-.53-1.45-.8-2.39-1,1.27-1.75,1.89,0,1.87-.41,2.67-1-.3-2-.39.06-.8.09-1.24-.65,0-1.13-.24-.14-1.54.18-2.16-.15-1-.74-1.75.06-.68,1.07-1.27-.24-.3-1.07-1.19.09-.68,1.1-1.09.09-.83.06-1.63a11.84,11.84,0,0,1,.41-3,.43.43,0,0,0,0-.11h0c.1-.06,1.88-1,3.23-.21a14.93,14.93,0,0,0,5.33,1.6c1.45.12,2.34.06,2.31,1.6s-.38,5.66,1.07,6.37,2,1.18,1,2.37-1.81,2.45-.89,3.82,1.42,3.05,2.31,2.37,1.24-2.7,2.37-1.87,1.57,1.37,2.34,1.4,1.13-.2,1.63.62.83,2.22,1.89,1.8,1.4-2,2.17-.91.86,1.45,1.68,1.68,2.2,0,1.34,1-2.16,2.76-.83,3.17,1.63.28,2,.76a3.42,3.42,0,0,0,2.52.89l-2,3.35,1.64,2L51,601.59l1.07.76,3.75.2Z" fill="#fff" stroke="#000" stroke-miterlimit="10"/><path d="M148.38,568.65c.14,1.06-1,.41-1.66-.24s-1.16.8-.65,2.16-1.69-2.31-1.49-2.93a2.45,2.45,0,0,0-.29-2,14.61,14.61,0,0,1-2.22-2.57c-.86-1.31.71,3.08,1.18,4.11s.3.6.77,1.75-1-.32-1.81-.82,1,2,2,3.25-1.45-1.18-1.93-1-1.48-.41-2.4-1.51-.06,1,.89,1.63a29.32,29.32,0,0,1,4.77,3.11,4.47,4.47,0,0,1,1.72,2.37c.65,1.31-.83.09-.68.95s-.21.62.59,1.33-.89-.32-1.07.09-1.42-.71-2.49-1.77.06.77.69,1.8-.3.5-.6.83.45.63.66,1.6-.45,1.34-.18,1.93-1.9.17-2.61-.48-.74.8-.15,1.72,1.72.74,2.61,1,.89,1.15,1.51,2.1,0,.86-.21,1.51,0,.74.36,1.63-1.51.38-1,1.69-.53,1.27-.44,1.92-1,.66-1.36.12-.6,1.19-.54,1.93-.8.56-2,1.07-.24,2.51.35,3-1.27,1.27-1.74,2.31,1.89,3.34,2.72,4.41-.12,1.07-.65,1.72-.21,2.13-1,1.63-.65.83-.35,1.8-.54.63-1.1-.05-.24,1.51.33,2.6-.51,1.63-.18,3.41-1.33,2.87-1.63,4.32-.12,4.86-.21,6.37-1.36,2.4-2,3-.83.08-.89-.45-.47.06-1,.68a8.76,8.76,0,0,0-.83,3.94c.06,1-1.33,1.54-2.34,2.91s-1,3.55-1.36,4.91a5,5,0,0,1-.86,2.14,2.69,2.69,0,0,0-.41,2.48,1.85,1.85,0,0,1,0,.23s-5.08-2-6-2.4-1.87-2.14-2.63-3.56a12.47,12.47,0,0,0-3.15-3.42c-1.42-1.28-3.2-.62-4.45-.09s-3.5-1.47-3.5-1.47c.55-1.3,2.31-3.77,1.86-5.17s-.75-1.64-.11-2.18,1.42-.58.69-2-2.14-4.31-1-5.09,5.35-2.09,4.71-3.44-1-3.22,1.11-3.15,8,1.73,7.71-.47-.78-6.2-2.53-7.44-1.27-1.67-1.89-1.78-1.22-.14-1.6-.94-2.13-2.71-2.45-3.8h0a1.25,1.25,0,0,1,0-.3,3.16,3.16,0,0,0-.53-2.2,4.09,4.09,0,0,1-1-3.25c.26-1.49,1.62-3.8,1.39-4.71A2.22,2.22,0,0,1,115,589c.92-.3,2.28-.27,1.9-2s-.89-2-.57-3.38.57-2.4-.62-3.61-3.81-3.67-3.46-5a.85.85,0,0,1,.09-.22c.73-1.28,5.12-6.46,7.19-6.34s6.55,2.52,7.29,1,1.9-2.91,1.72-3.8,1.36-2.66.71-3.35-1.22-.82-1.19-2.39-.23-2.9.6-2.76,1-.32,2.16-.2,2.84,1,3.76.35,1.87-2.07,3.32-1.33,2.49,2.38,4.15,2.51,2.37,0,2.54.66a9.86,9.86,0,0,0,1.52,2.58,2,2,0,0,1-.39.47c-.8.68.5,1.33.86,1.89s.89.15,1.15-.5.92,1.87,1.25,2.9S148.23,567.58,148.38,568.65Z" fill="#fff" stroke="#000" stroke-miterlimit="10"/><path d="M141.55,647.6a4,4,0,0,0,.68-2,13.22,13.22,0,0,0,.17-2.67,2.31,2.31,0,0,1,0-1.28c.15-.35.38-.73.54-1.06a10.06,10.06,0,0,0,.87-1.88,27.56,27.56,0,0,0,1-4.17,4.8,4.8,0,0,1,.77-2.23,4.61,4.61,0,0,0,.68-2.39,10.2,10.2,0,0,1,.83-2.69c.27-.76-.17-1.48,0-2.28a9.31,9.31,0,0,1,.94-1.83c.43-.81,1.09-1,1.78-1.56.23-.17.41-.47.66-.7s.42-.37.45-.81c0-.74-.09-1.4-.09-2.13a2.06,2.06,0,0,1,1.06-1.65A1.69,1.69,0,0,0,152,615a6.87,6.87,0,0,1-.65-1.22c-.1-.54.31-.83.69-1.11s.53-.37.5-1c-.15-.19-.38-.43-.57-.63.32-.1.65-.26,1-.37.49-.19.54-.24.55-.78a6.39,6.39,0,0,1-.05-1.07,1.71,1.71,0,0,1,.5-.85,5,5,0,0,0,1-2.09c.11-.57.15-1.4.61-1.82s.76-.36,1-.82a3.28,3.28,0,0,0,.3-1.27c0-.76-.08-1.49,0-2.27s-.42-1.35.35-1.92c.48-.35,1.46-.81,1.69-1.32.37-.8-.46-.94-.72-1.41s-.18-1.44-.64-1.71-.66.11-.86.37a2.45,2.45,0,0,1-.88.72c-.6.32-.94.78-1.52,1.14-1.22.77-1.38,2.1-1.38,3.47a17.3,17.3,0,0,1-.17,1.78c-.07.63-.06,1.23-.84,1.29-.18.34.1.9.17,1.24a3.93,3.93,0,0,1,.13,1.38,3.24,3.24,0,0,1-.48,1.24,4.41,4.41,0,0,0-.68.93c-1.25.61-.74,1.55-1,2.71-.09.51-.49.74-.81,1.06a2.6,2.6,0,0,0-.66,1.16c-.44.13-.42.59-.45,1a2.93,2.93,0,0,0-1,1.19,8.82,8.82,0,0,1-1,1.31,6.07,6.07,0,0,0-.63,1.5,9.33,9.33,0,0,0-.63,1.55c-.69.17-.88.5-1.38,1-.29.28-.62.45-.81.82a12.24,12.24,0,0,0-.51,1.39c-.21.55-.46,1.1-.7,1.63-.38.8-.67,1.69-1.11,2.43a16,16,0,0,0-1,1.56,10.62,10.62,0,0,0-.63,2.22c-.14.68-.15,1.37-.35,2a9.77,9.77,0,0,1-.91,1.87c-.65,1.17-.36,2.71-.61,4a11.78,11.78,0,0,0-.18,2.13,3.41,3.41,0,0,0,.31,2c.45.63,1,.91,1.07,1.77a6.34,6.34,0,0,1-.13,2.14c-.41,1.56.05,3.14-.27,4.7-.16.77,0,1.89-.26,2.7,0,.09.54-.11.59-.15a3.26,3.26,0,0,0,.49-.62,5,5,0,0,0,.79-1.1A23.51,23.51,0,0,1,141.55,647.6Z" fill="#fff" stroke="#000" stroke-miterlimit="10"/><path d="M184.84,598.5c-1.38,1.25,1.06,1.35,1.86,1.39a3.47,3.47,0,0,1,.14,1.1c0,.41-.27.42-.4.76-.21.57.31,1.4.48,1.92a6,6,0,0,0,.2,1.09c.13.24.49.39.7.54.54.41,1,.8.72,1.53s-.67,1.11-.63,1.89c.6.28,1.14,1,1.77.32.29-.3.32-.79.68-1s.48,0,.43.38a2,2,0,0,1-.36,1c-.09.1-.23.09-.3.23s0,.35,0,.53c-.13.46-.49.4-.84.53a1.34,1.34,0,0,0-.72.72,9.71,9.71,0,0,0-.45,1.95,4.48,4.48,0,0,1-1.14,1.69,2.19,2.19,0,0,0-.5,1.83c.42,1,1.1.09,1.66.2.76.16,1.4.44,2.17-.07.59-.39.69-1.25,1.25-1.56l.13.09c.49-.5.61-1.09,1.32-1.39s1.08-.55.95-1.37c-.12-.67-.91-.64-1.11-1.33-.25-.89.24-1,.66-1.64s-.33-1.16-.22-1.82c.06-.36.32-.51.62-.67s.52-.24.63-.75h.83c.12-.59-.73-.92-1.19-.94-.08-.34.29-.55.4-.83.48-.07,1.69.12,1.9-.32s-.13-.83,0-1.15.48-.37.71-.49a4.3,4.3,0,0,0,1.64-1.16,1.17,1.17,0,0,1,.68-.52c.61-.14.44.21.78.49s1-.22,1-.67a1,1,0,0,1,.61-.13,2.48,2.48,0,0,0,.27.48,2.6,2.6,0,0,0,.31-1.07c.06-.26-.06-.22.21-.4s.34,0,.46-.26c.43-.9-1-1.4-1.51-1.52-.5-.81.07-1.07.63-1.67.32-.35.16-.49.26-.95a1.42,1.42,0,0,1,.54-.8c.25-.2.58-.28.74-.53s.18-.55.44-.81a7,7,0,0,1,1.7-.89l.35-.17a.76.76,0,0,1,.8-.26c.41.05.43.21.76,0a1.86,1.86,0,0,0,.79-1.55c-.65-.13-.64-1-1.37-1s-1.11.46-1.83-.22-.06-1.24-.52-1.88c-.33-.47-1.27-.79-1-1.55a8.91,8.91,0,0,1,.83-1.59c.32-.5.93-1.09.72-1.74-.09-.31-.47-.52-.66-.77a4.29,4.29,0,0,1-.46-.87c-.12-.25-.37-.44-.34-.76s.57-.73.8-1.07c.42-.62.19-1.17.09-1.87a2.3,2.3,0,0,1-.09-1c.11-.33.43-.37.75-.45.84-.2.89.9,1.73.84a2.27,2.27,0,0,1,.49-.84c.17-.15.44-.17.59-.35.36-.41.17-1.13.16-1.65a.65.65,0,0,1,.5-.71c.37-.14.39,0,.59-.35a1.68,1.68,0,0,0,.21-.85c0-.3-.21-.47-.17-.79.44-.19.32-.56.88-.59a7.89,7.89,0,0,1,1.2.18c.54.06.71-.35.5-.8a1.81,1.81,0,0,0-1-.72,7.06,7.06,0,0,1-.39-.89c-.1-.33-.07-.7-.14-1.06a2.42,2.42,0,0,0-.6-1c-.3-.34-.5-.34-.88,0s-.36.68-.63,1c-.11.12-.26.19-.38.31s-.21.43-.33.53a.53.53,0,0,1-.8-.16c-.19-.33,0-.65.06-.94.14-.55,0-1.25-.7-.8-.21.13-.34.4-.58.54s-.54.1-.68.25c-.37.4.3.95.17,1.42s-.88.91-1.06,1.46c-.67.14-.57-1.41-.62-1.81s-.3-.61-.52-1-.13-.65-.24-1c-1.48-.59-2.06,1.07-3,1.73a3,3,0,0,0-1,1.46c-.09.22-.19.59-.41.71a1,1,0,0,1-.85-.12,2.66,2.66,0,0,0-.44,1.1c-.7.08-.84-.47-1.32-.66-.16.26-.46.35-.64.6s-.19.61-.35.9a13.38,13.38,0,0,0-.87,1.48c-.55,1.3-.74,2.64-1.6,3.78-.41.54-.79,1.14-1.22,1.67s-.52,1.25-.92,1.78-.51,1-1.2,1.27a4.1,4.1,0,0,0-1.65,1.22c-.43.52-.76,1.14-1.21,1.64a3.52,3.52,0,0,0-.61.67c-.17.36,0,.63,0,1a3.54,3.54,0,0,1-.26,1,5.87,5.87,0,0,0,0,1.11,5.57,5.57,0,0,0,.79,1.91c.34.68.79,1.11.81,1.91s.23,1.39.23,2.13a2.76,2.76,0,0,1-.36,1.91A18,18,0,0,1,184.84,598.5Z" fill="#fff" stroke="#000" stroke-miterlimit="10"/><path d="M209.55,475c-.3,1.24-2.29.68-2.85.09s-4.77,1.95-5.42,2.9.09,1.12.42,2.61-1.28,0-2-.48-.44.09-.38,1.28-.57,1.33-1.51,1.89a12,12,0,0,0-3.23,2.34c-.83,1-1.57,1.63-1.81,2.64s-.92.09-1.54,1.27-1.18-.56-1.87-.77-.59,1.31-1.15,1.45.33.92,1,1.37-1.15.62-1.92.47-1.36-.8-1.54-2.07-1,.26-1.1,1.42c-.06.87,1.07,2.3.65,3.05-.22.42-.7.36-1.12.36-.94,0-1.85-.09-2.79-.12s-1.28-.58-2.13-.89a4.7,4.7,0,0,1-2.3-1.44,3.82,3.82,0,0,1-.38-2.78c.19-.89.85-1.34.85-2.36a13.69,13.69,0,0,1,.47-2.61c.07-.43.24-.78.05-1.17s-.62-.39-.71-.83a7.13,7.13,0,0,0-1.06-.55c-.34-.19-.4-.56-.59-.94a3.56,3.56,0,0,1-.42-1.13c-.05-.38,0-1-.58-.81-.17.42-.28,1.7-1.08,1.53-.49-.11-.94-1.33-1.26-1.71a1.82,1.82,0,0,1-.49-1l1.52-.4,2.84.48,2.52-2.46,4.47-1.27,3-1,1.13-3.05s3.49-3.09,3.61-3.14.48-5.1.48-5.1l3.65-6.21a14.55,14.55,0,0,1,1.47,1.44c.57.8.36.12.54-.32s1.65-.21,3.43.23,1.33,3.94,2,5-.57-3.94.2-4.45,1.4,3.11,1.93,4.8-.39.8-.62,2.37,1.68,2.58,1.77,4.3-1.51,2.28-2.81,3.2,5.1.21,6.28.26S209.84,473.73,209.55,475Z" fill="#fff" stroke="#000" stroke-miterlimit="10"/><path d="M199.59,499.42c-.8,1.3-1.75-.39-2.28-1.16s-1.07.44-2.25-.29-2-.66-3.46-1.07-.89.59-.27,1.15.47,1.31-1.48,1,2.22,1,3,2.34.06,1.63.18,3.29-1.63.83-2.79,1.42-1.15,2.08-2.6,3.53-.09-2.11.76-3.17-1.89,1.24-2.31,2.39-1.12.06-2,.87a32,32,0,0,0-2.46,2.72c-.71.8-.77,3.67-.86,5.12s-1.57,1-1.66,2.67-1.66-3.56-2.22-4.21-1,.27-1.18,1.4-.3-1.93-.63-2.31.75-3.2.89-4.27a36,36,0,0,1,.6-4.44c.44-1.93-1,.85-.92,1.83s-.42,1.84-1.16.51.12,3.61-.23,5.3-.74,1.48-1,3-.86-1.63-1.25-3.11c-.24-.92-.47.37-.49,1.72l-2.12-3.55-4.05-.86-.64-10.77.45-.29c.14-.92-.09-2,0-2.95a9,9,0,0,1,2.76,1.25,18.53,18.53,0,0,1,1.79,1.19c.44.33,1.19,1.14,1.71,1.16a7.67,7.67,0,0,1,.43-2.17c.75,0,.82.15,1.31.45a10.09,10.09,0,0,0,1.65.59,4.75,4.75,0,0,0,1.83.49c.43,0,1.39.17,1.71-.14s.13-1,.19-1.4a1.33,1.33,0,0,1,.71-1.13,4.26,4.26,0,0,0,1.07-.59c.28-.26.55-.66.93-.79a11.36,11.36,0,0,1,3.08,0c1,0,2.12.08,3.14.06a1.61,1.61,0,0,0,1.5-1.36c.14-.6.83-.06,1.63-.54s2.4-.21,3.43,1.34.33-1.37.39-2.41-1.31-1.59-2.16-2.07,2.45.33,3,.86.83-.27.86-.47,1.51,1,2.54,1.24-.32.92-1.12,1.16.86.59,1.63,1.09.15,1.22-.36,1.74.68.16,1.19.25S200.39,498.11,199.59,499.42Z" fill="#fff" stroke="#000" stroke-miterlimit="10"/><path d="M170.33,517.81c-.92-.74,0,1.25.76,2.34s-2.16-.83-3-1.95,0,.88.18,1,.53,1.22-.18,1.43.63,1.09.84,2.07-2.14.5-3.44-.15.31,1.36.75,2.79-1.2.75-1.78.8-.71-1.78-1.15-3-.84.93-.4,2-.53,1.16-2.31,1.11a2.15,2.15,0,0,1-2.13-2.22c-.09-.71-1.51.8-1.43,1.47s2.49,1,3.25,2.49-3.16,1-5,.35-.71.31.49,1-.13.71.31,2.09-.31.58-1.33,1a2,2,0,0,1-2.53-.27c-.53-.46-1-.07-2,0l-.74-3.28-4-4.13-5,1.73-2.61-2.2L136.63,521l-.62-1.73-2.71-2-4.13-3.38H126.7a13.28,13.28,0,0,1-1.07-1.26l.58-1-.76-.67-2.17,1.78-2.45-1.27-.29-4,3.53-3.38a6.25,6.25,0,0,1,2,0,13.41,13.41,0,0,0,2.75.32,2.06,2.06,0,0,0,2.17,1.19c1.19-.4,0-1.62-.63-1.84-1-.35-2.17-1.17-3.26-1.09-.17-.62,1.24-1.12,1.64-1.33a6.87,6.87,0,0,1,2.44-.71,5.29,5.29,0,0,0,2.4-.4,4.5,4.5,0,0,1,1.08-.62,9.49,9.49,0,0,0,1.06-.22,5.32,5.32,0,0,0,1.48-.81,4.76,4.76,0,0,0,.91-1,7.6,7.6,0,0,0-2.81.11,6.17,6.17,0,0,0-2.35.59,3.94,3.94,0,0,1-2.3.89,5.27,5.27,0,0,1-1.94-.81,1.58,1.58,0,0,0-.81-.26c-.37,0-.65.24-1.06.17,0-.46-.49-.41-.95-.29l1.26-1.24.66-.64,4-2.22,4,.89,1.6-1.47.63-3.54a2.18,2.18,0,0,0,.81.25c.32,0,2-.72,2.17-.46.73,1.46,2.24.2,3.33-.19.79-.27,1.25-.71,2.07-.22a7,7,0,0,1,1.73,1.75c.64,0,1.84-.18,1.61-1.07-.1-.34-.51-.61-.6-1a3.89,3.89,0,0,1,0-1.13c.08-.78.2-.89.93-.82a5.75,5.75,0,0,1,1.54.35,5.48,5.48,0,0,1,2.3,2.32,15.73,15.73,0,0,1,1,2c.19.42.17,1,.37,1.36.48.9,2.16,1.08,3.05,1.09,1.25,0,2.37.27,3.64.27.82,0,2-.16,2.2.83.11.77-.61,1.56-1.07,2s-.7.57-.65,1.17c0,.43.47.72.34,1.18-.13,0-.2.12-.33.13-.05.61,0,.66.46.7a1,1,0,0,0,1.08-.46c.41-.08.56.45.83.69l.64,10.77,4.05.86,2.12,3.55a5.62,5.62,0,0,0,.23,2C172.28,518.67,171.24,518.55,170.33,517.81Z" fill="#fff" stroke="#000" stroke-miterlimit="10"/><path d="M92.15,461.87c0,1.11-1,1.11-1.81,1.82s-.5,2-.5,3.6-.53,1.95-1.29,3.65,1.11,6.48,1.65,7.9S89.66,480,88.46,480s0,3.56.27,5.29-1.33,5-1.33,5l-2.54,5.6.31,3.78.35,5.69a1.85,1.85,0,0,0-1.55.93c-.26.4-.55,1.06-1.07.49-.3-.33,0-.49-.47-.52a3.42,3.42,0,0,0-.81.16,4.56,4.56,0,0,1-1.65-.08c-1.07-.14-.66-2.45-.53-3.16s-1.51,1.82-2.8,3.16-.58-.14-.89-1.61,1.12-2.35,3.12-4.53,0-2.22-.27-3.86a3.65,3.65,0,0,1,.13-2.76c.4-1.38-.22-.57-1.56.27s-.66-1.33-1.06-2.45-.13.62-.22,1.69-.58-.71-1.16-.13-.93-1-.53-1.25-.58,0-1.42-.79-1.38.62-1.34,1.95-.75-2.71-.22-3.38-2-.8-3.78-1.2-1.33,1.2-2.71,1.2,1,2.22,1.69,3.07-.93.75-1.33,1.6-.8-.76-.71-1.47-.54-.49-1-1.06a17.41,17.41,0,0,1-1.73-2.81c-.32-.66-1.87.45-3.52.41s.14,2,1.2,3.33-.84.27-1.29-.13-1,.17-.87,1.15-1.35-3.29-1.75-4.35-1.6.13-2.17-.54-.18-.31-1.16-.26-1.46-.09-2.71,0,0,1.37,1.2,1.51,1.15,1,3.07,2.18.17,1.24-.71,1.1-.41.89.66,1.43.67,3.33,1.87,5.6.89,9.77.93,11.19-.93.58-1.11,1.07-.85.31-1.16-.44a18.25,18.25,0,0,0-1.82-3.25c-.93-1.37-.26-1.06.45-1.91s-.53-.67-1.29-.57-.76-1.43-1.65-2.72-1.24-.26-2,.05-.35-2.71,0-4.4-1.12,1.95-2,2.22c-.7.2-1.13,1-1.82,1.53l-2-4.86-1-.31-.94,1.82-3.68-2-.4-1.52-2.14-.71c-.66-.22-2.84-3.28-3.87-3.82s-.44.85-.08,2-.54.49-2,.81S24,490.57,24,490.57l-2.69-.84-3-12.75,2.05-4.09,3.46-1.2,1.65-4.58L24,462l3.07-2.09,4.53,1.42,11.46-12.08-1-7.25,4.49-4.62.4-8.8-1.6-1.15-3.87-12,1-5.19-4.35-4.53,2.71-1.87,9.6.22L62.65,418.9l.35,3.6,2.71,2.8.89,4.27,3.87,7L75,438.81l.35,2.75,5.2,7.65.22-3.25,4.71.35,1.42,7.47,4.76,3.65C90.9,458,92.11,460.92,92.15,461.87Z" fill="#fff" stroke="#000" stroke-miterlimit="10"/><path d="M98.73,521.64l-.13.13a25.06,25.06,0,0,0-2.5,1.91c-1,1.16-2.35,2-3.37,3.2a14.68,14.68,0,0,0-1.43,2.44,12.33,12.33,0,0,0-1.16,2c-.22.63-.41,1.2-.61,1.82A4,4,0,0,1,88.29,535c-.34.35-.25.55-.27,1a4.2,4.2,0,0,1-.17,1.07A4.7,4.7,0,0,1,87,538.4a2.16,2.16,0,0,0-.32.92A14.16,14.16,0,0,1,86,540.8a6.22,6.22,0,0,1-.73,1.4c-.45.58-1.24.94-1.65,1.59a3.45,3.45,0,0,0-.39,2,7.49,7.49,0,0,1,0,1.16c-.06.41-.29.48-.5.79a11.8,11.8,0,0,0-1.45,3.93c-.19.74-.3,1.46-.48,2.21-.14.55-.18,1.47-.58,1.83a4.94,4.94,0,0,1-1.09,2.21c-.36.46-.69,1-1,1.43a5.21,5.21,0,0,0-.9,1.18,1.53,1.53,0,0,0-.57,1.21c0,.75,0,1.48,0,2.22a5.85,5.85,0,0,0,.13,1l-3.18.17-2.29,3.41-1.89-2.93-2.58,2.63c-.12.12-1.86,6.64-1.86,6.64l-2,2.46v.91l-.68,2.76L47.6,599.1a1.71,1.71,0,0,1-1.1.61,3.42,3.42,0,0,1-2.52-.89c-.41-.48-.71-.34-2-.76s0-2.16.83-3.17-.5-.77-1.34-1-.91-.59-1.68-1.68-1.1.5-2.17.91-1.39-1-1.89-1.8-.86-.6-1.63-.62-1.21-.57-2.34-1.4-1.48,1.19-2.37,1.87-1.39-1-2.31-2.37-.09-2.64.89-3.82.44-1.66-1-2.37-1.1-4.83-1.07-6.37-.86-1.48-2.31-1.6a14.93,14.93,0,0,1-5.33-1.6c-1.35-.8-3.13.15-3.23.21.12-.88-1.26.69-1.63-.48s1-2.66,1.31-3.61-2-.53-3.65-.68-.2-1.87.86-2.31,1.07-.69,2.22-1.87-1-.15-2-.2-1.34-.75-2-1.4,0-1.66.45-2.46a5.17,5.17,0,0,1,1.83-1.83c.83-.57.3-1,.06-1.28s-.14-.8.89-2.19,1.07-3.23,1.07-4.77.38-2.64,1.6-4.74-.27-4.44-.68-5.36,1-1.21,2-1.54-.92-.6-1.75.09-1.18-.6-2.22-1.1-.53.41-.23,1-1.66.74-2.14,1.69-1.77.59-2.34.95-.8.29-1.72-.36,2.14-3,2.67-4.24a9.39,9.39,0,0,1,3.08-3.2c1.16-.79-1.48-.62-2.16.27s-.15-2.22-.36-3.35-.68.89-.56,1.81-1.13,3.67-3.35,5.45.42-2.9-.56-2.64.35-2.6.71-4-1.6,1.63-2.61,2.81-1.77.44-2.84.33.15-1.51-.15-2.49.89.47,1.39,0,.3-1.34,1.16-2.05-.35-.68-1.16-1.33-.44-2-.94-2.25.53-1,1.21-1.33.15-1-.15-1.1-.15-1,.36-1.78-.65-1.57-.09-3.25-.74-3.24-.65-4.36-.09-1.78.56-2.58-.24-3-.8-3.41.21-1.42.44-1.68-.62-1.37-1.46-1.75.58-1.72,2.33-2.52-.69-.71-1.75-.29-.48-.36.35-2.13,4.47-2.41,4.47-2.41c2-.18,1.31,1.87,1.75,3.32s.95,1.51.95,1.51c1.26,1.58-.06,4.33-.19,6.81s5.69-.13,5.69-.13L16,503.82l2.53-1.34.49-6.8,2.67-4.53-.34-1.42,2.69.84s2.13,4.14,3.65,3.83,2.39.4,2-.81-1-2.57.08-2,3.21,3.6,3.87,3.82l2.14.71.4,1.52,3.68,2,.94-1.82,1,.31,2,4.86a2.09,2.09,0,0,1-.76.38c-1.19.31-.84,1.07-1,1.78s-1,.62-1.11,1.77-.66,1.12-1.37,1.56-1.78,3.29-1.92,4.84-2,0-3.42-.62,0,3.56.36,5.47a19.21,19.21,0,0,0,.84,4c.4.94-.09,1.16,2,1.07s.75.66-.09,1.15-1.25,3.07-2,4.71-2,1.69-3.64,2.18-1.69,1.38-2.4,3.15-1,1.83-.22,1.83.4.31.62,1.42,1.29-1.6,1.91-1.29,1.47-.71,3.65-2,2-2,3.37-2.18-2,1.87-3.11,3.2-.84,1.73-.58,2.89.49-.36,2.13-.76,1.25-1.64,1.34-2.75.53-1,1.86-1.07,2.41-1.73,4.09-2.31,2.67-3.69,3.25-4.93,2.89.17,4.44-.09-.27,1.46-.4,3.28.27,1.25,2.49,2.18,1.42-2,3-4,1-1.91,4-3.19,1.42,0,3.11-1.34,1.2.36,2.53.8,1.29-.4,2.09-1.42a4.73,4.73,0,0,1,2.66-1.29c.6-.37,1.47-.1,1.26-1.12-.15-.72-.34-1.39.56-1.69.22-.07.82,0,1-.2s.05-.74.09-1a4.36,4.36,0,0,1,.9-1.63c.34-.53.76-1.08,1.1-1.62a5.8,5.8,0,0,0,.56-1.74c.12-.44-.12-.65-.3-1.14-.09-.24,0-.52-.17-.73s-.32-.19-.43-.35S75.68,509,75.8,509a5.82,5.82,0,0,1,1.32,0,1.79,1.79,0,0,0,1.12,0c.36-.1.66,0,1-.21.6-.36.82-1.12,1.6-1,.56.07,1.54.3,1.52.95A1.5,1.5,0,0,1,81.17,510c-.42.13-1.8-.2-2,.4s.54.17.74.13a1.19,1.19,0,0,1,1,.13,2.45,2.45,0,0,1,.66,1.74c0,.44-.17,2,.7,1.78.21-1.16,2.16-.49,2.89-.81l2.26,4.53a4.29,4.29,0,0,0-1.27,1.13,2,2,0,0,0-.35,1.9,6.36,6.36,0,0,0,.33.82c.27.34.66-.06.91.16s.09,1.24.12,1.56.34.77.75.55a5.37,5.37,0,0,0,.82-1.29c.19-.33.34-.72.55-1a6.11,6.11,0,0,0,.51-.63h0Z" fill="#fff" stroke="#000" stroke-miterlimit="10"/><path d="M114.68,616.35c-2.07-.07-1.76,1.8-1.11,3.15s-3.6,2.67-4.71,3.44.29,3.67,1,5.09,0,1.47-.69,2-.33.78.11,2.18-1.31,3.87-1.86,5.17-2.32,1.67-3,5.25-2.55-.49-3.4-1.56-2.93-1.22-4.22-1.82-2.66,1.74-3.86,2.85S88,641.78,87,640.61a17.2,17.2,0,0,0-4-2.79c-.57-.32-1.1-.6-1.52-.81-1.54-.78-5.53-1.38-8-2.91s-2.4-.87-3.4.33-2.28,1.11-3.82,1.13-1,.72-2.4,2-8.33.76-9.9.49a10,10,0,0,1-.21-3.73,5.08,5.08,0,0,0-.12-3.82c-.63-1.78-2.54-5.07-2.54-8.13s-.63-7,2.35-7.25,5.87-.08,6.76-2c.47-1,.57-2.47,1.27-3.57s1.65-1.62,3.79-1.5c4.62.27,9.2.23,10.18,2s4.62,6,5.28,2.62-2.35-8.58,3-10,9.55-2.31,10.44-1.07,2.13,3.83,3.47,2.45,1.5-2,2.39-2.14,3,.33,2.76-.9-.35-2.74,1-2.16,2.27,1.46,3.11.95a3.77,3.77,0,0,1,2.85-.33c1.1.23,2.33,2.2,4.07,2.35h0c.32,1.09,2.1,3.08,2.45,3.8s1,.83,1.6.94.13.53,1.89,1.78,2.26,5.24,2.53,7.44S116.75,616.41,114.68,616.35Z" fill="#fff" stroke="#000" stroke-miterlimit="10"/><path d="M115,589a2.22,2.22,0,0,0-1.27,2.49c.23.91-1.13,3.22-1.39,4.71a4.09,4.09,0,0,0,1,3.25,3.16,3.16,0,0,1,.53,2.2,1.25,1.25,0,0,0,0,.3c-1.74-.15-3-2.12-4.07-2.35a3.77,3.77,0,0,0-2.85.33c-.84.51-1.73-.37-3.11-.95s-1.24.93-1,2.16-1.87.82-2.76.9-1.06.76-2.39,2.14-2.58-1.2-3.47-2.45-5.07-.35-10.44,1.07-2.36,6.62-3,10-4.31-.8-5.28-2.62-5.56-1.78-10.18-2c-2.14-.12-3.19.55-3.79,1.5l-5.74-7.05-3.75-.2L51,601.59,46.18,605l-1.64-2,2-3.35a1.71,1.71,0,0,0,1.1-.61l14.72-18.16.68-2.76v-.91l2-2.46s1.74-6.52,1.86-6.64l2.58-2.63,1.89,2.93,2.29-3.41,3.18-.17a12.82,12.82,0,0,1,.27,1.4c.13,1.51-.1,2.88.54,4.26h.12c.31-.56.87-1.09,1.19-1.69a4.42,4.42,0,0,0,.41-1.86,20.22,20.22,0,0,1,.32-2.09c.17-.81.1-1.51.73-2.18A15.85,15.85,0,0,1,82.9,561c.53-.37.59-.78.9-1.33A19.28,19.28,0,0,1,85,558a22.7,22.7,0,0,0,1.82-3.08l3.15.64,5.15-.35,2.2,1.48.91-.59L99,553.3l2.46.68-.12,6.4-1.83,4.68,2.34,6.31,1.72,3.23,8.62.37c-.35,1.35,2.34,3.87,3.46,5s1,2.22.62,3.61.18,1.66.57,3.38S115.88,588.67,115,589Z" fill="#fff" stroke="#000" stroke-miterlimit="10"/><path d="M127.13,496.72,125.87,498c-.3.07-.59.19-.7.21a2.84,2.84,0,0,1-1.07.22c-.37-.06-.54-.42-.84-.63s-.9-.44-1.34-.69a5.72,5.72,0,0,0-.8-.5c-.67-.23-1.49.15-2.05-.21s-1.06-.68-1.76-.22a5.36,5.36,0,0,1-2,1,15.54,15.54,0,0,1-4.31.05c-.42,0-1.91-.22-2.14.21s.43,1,.72,1.1a3.31,3.31,0,0,0,1.37.15,10.82,10.82,0,0,1,3.13.63c1,.32,1.84.85,2.79.34a3,3,0,0,1,1.81-.39c.32.54,0,.91-.07,1.41.86.15.81.76.26,1.3s-.34,1,.35,1.42a7.18,7.18,0,0,0,4.53.83l.33,0-3.53,3.38.29,4-2.53.25-.15,2.11-1.1,2.09-3,.67-1.74,2.26-8.46,1-3.34,4.7a6.3,6.3,0,0,0,.21-.75c0-.13.08-1.27.1-1.28a1.09,1.09,0,0,1-.69.12,5.56,5.56,0,0,1,.11-1.69,5.08,5.08,0,0,0,.32-1.7c-.83.63-1.15,1.62-1.86,2.38l-8.92-.55c0-.05,0-.11.08-.17a6.51,6.51,0,0,0,.26-1.24,15.1,15.1,0,0,0,.22-2.71c-.32.06-.79.95-.8,1.28a2.86,2.86,0,0,1-1,0c-.34-.11-.46-.46-.86-.44a.79.79,0,0,0-.23.08l-2.26-4.53s0,0,0-.07c.23-.21.24-.6.31-.89a5.18,5.18,0,0,0,.26-1,7.93,7.93,0,0,0-.41-2c-.27-1.35.26-2.69.18-4.1l-.35-5.69-.31-3.78,2.54-5.6s1.6-3.24,1.33-5S87.26,480,88.46,480s2.27.26,1.74-1.16-2.4-6.22-1.65-7.9,1.29-2,1.29-3.65-.34-2.89.5-3.6,1.86-.71,1.81-1.82c0-.95-1.25-3.9-.53-4.44h0a.61.61,0,0,1,.53-.05c1.69.45,5.46,1,5.46,0s-1-1.47.49-2.14,2-1.64,2.36-1.06,1.78,2.35,3.11,2.48,7.33,1.34,9.24,5.87a21.38,21.38,0,0,0,2.54,4.71c.58.77,1.1,1.27,1.64,2a6.38,6.38,0,0,1,1.29,4.7c-.23,1.16-.36,3.12.58,3.52s2,.22,1.68,2-.53,4.09.54,4.44,2,0,1.77,1.91-.35,3.78.94,4.18,1.73.09,1.73,1.6S127.13,496.72,127.13,496.72Z" fill="#fff" stroke="#000" stroke-miterlimit="10"/></svg>