<svg xmlns="http://www.w3.org/2000/svg" viewBox="0 0 111 117"><title>cross</title><g id="Lager_12" data-name="Lager 12"><path d="M82.43,5.62C78.26,9.79,75,15.71,72.22,19.5c-7.9,10.94-16,21.71-24.27,32.42s-16.7,21-24.55,31.84c-4.65,6.42-10.63,12-14.23,19.11a14.75,14.75,0,0,0-1.77,5.82,8,8,0,0,0,4.83,7.6,9.35,9.35,0,0,0,8.85-.48,27.72,27.72,0,0,0,5.26-5C31.12,105.5,36.11,100,40.08,94c2.65-3.56,5.53-7,8-10.72,8.08-10.76,16-21.65,23.88-32.55q7.22-9.95,14.42-19.9c4.38-6,16.65-18.13,12.46-26.51A6.85,6.85,0,0,0,93.52.84C89.25.3,85.59,2.46,82.43,5.62Z"/><path d="M100.67,100.56c-3.59-6-9-11.18-13.55-16.19-6.73-7.43-13.71-14.63-20-22.47C58.19,50.66,48.92,39,39.78,27.61c-3.35-4.16-6.93-8.47-10.38-12.67-3.06-3.73-5.81-8.27-10.22-10.55A8.11,8.11,0,0,0,8.5,7.12c-4.56,7.05,2.32,14,6.44,19.05q5.6,6.9,11.28,13.71c16.77,20,34,39.83,50.32,60.24,4,5,7.65,10.51,12.89,14.33,2.38,1.73,5.39,3.3,8.42,2.55,5.82-1.46,6.72-8.38,4.59-13.08A31.79,31.79,0,0,0,100.67,100.56Z"/></g></svg>