<svg xmlns="http://www.w3.org/2000/svg" viewBox="0 0 240.77 246.71"><defs><style>.cls-1{fill:#706f6f;stroke:#000;stroke-miterlimit:10;}.cls-2{font-size:16px;font-family:MyriadPro-Regular, Myriad Pro;}.cls-3{letter-spacing:0.01em;}</style></defs><title>karta1</title><g id="karta1"><path class="cls-1" d="M125,129c-7.68-3.77-11.52-5.65-12-6a26.26,26.26,0,0,1-9-12h0c-1-2.52-1.35-4.3-3-5-2.92-1.23-7,2.19-8,3a14.15,14.15,0,0,0-4,5c-1.41,3.06-.49,4.25-1.5,6.5-1.14,2.54-3.77,3.73-9,6-7.1,3.09-10,2.86-12,6-.32.5-1.77,2.78-1,5a5.87,5.87,0,0,0,3,3c3.29,1.83,5.29.42,7,2,1.5,1.39,1.75,4.11,1,6-1.07,2.69-3.7,2.43-7,5-4.88,3.8-3.08,7.41-7,10-3.71,2.45-5.85-.43-14,1-5.74,1-4.93,2.48-12,4-6.21,1.33-8.68.59-11,3-1.68,1.74-2.26,4.07-3,7-1.07,4.24-.12,4.68-1,7-1.94,5.12-7,4.21-9,9-1.1,2.63.37,3,0,10-.29,5.37-1.18,5.45-1,9,.12,2.33.38,7.35,4,11,3,3,6.78,3.63,9,4,6,1,7-1.47,11,0,4.87,1.77,8.45,7.17,9,8,1.25,1.88,1.5,2.88,3,4,2,1.48,5.65,2.76,8,1,1.85-1.39,2-4,2-5,.13-3.25-2.7-4.69-2-6,.28-.53.92-.69,5-1,4.87-.36,5.78-.27,7-1a7.77,7.77,0,0,0,3-4c.45-1.08.75-2.26,1-9,.12-3.2.11-4.32,1-5,1.08-.83,2.86-.54,4,0,2.21,1,1.84,2.93,4,4,1.91.95,3.37,0,4,1s-.29,2-1,4a16.81,16.81,0,0,0-1,7c.5,3.93,5.51,6.33,9,8,6.9,3.3,13,3.63,20,4,7.53.4,11.29.6,14-1a10.68,10.68,0,0,1,6-2,10.42,10.42,0,0,1,4,1c1.75.9,1.74,1.66,3,2a4.69,4.69,0,0,0,5-2c.54-1,.48-2,0-4-1-4.13-2.2-5.6-3-8a17.57,17.57,0,0,1,0-10c.57-2.22,1.59-6.25,5-9,2.81-2.26,5.78-2.5,8-6a3.54,3.54,0,0,0,0-5,36.18,36.18,0,0,1-3-6c-1.48-3.7.32-4.51-1-8a13.06,13.06,0,0,0-5-6c-2.61-1.73-3.42-.91-8-3-2.91-1.33-4.63-2.13-6-4s-1.56-3.43-2-6a18.26,18.26,0,0,1,0-8c.76-2.94,1.85-3.34,3-7a17,17,0,0,0,1-5,14.51,14.51,0,0,0-1-5,13.87,13.87,0,0,0-2-4A12,12,0,0,0,125,129Z"/><path class="cls-1" d="M107.5,103.5c1.13-3.72,4.7-3.8,10-8,2.74-2.17,5.16-5.45,10-12,3.37-4.57,3-4.54,7-10s5.95-8,8-10c.76-.72,3.62-3.38,7-7,1.43-1.53,2.67-2.93,3-5a35.44,35.44,0,0,0,0-4c0-1.33,0-2.67,0-4,0-3.23-.37-3.78,0-5a6.63,6.63,0,0,1,2-3c10.9-.67,16.69-.41,20,0a10.57,10.57,0,0,0,3,0c4.71-.68,7.79-4.47,9-6,2.29-2.9,1.37-3.23,5-10,3-5.66,4.55-7.07,6-8a13.35,13.35,0,0,1,6-2c5.34-.51,9.38,2.23,12,4a17.79,17.79,0,0,1,6,6,15.67,15.67,0,0,1,2,6,26.23,26.23,0,0,1,0,3c-.05,4.49-.08,6.73,0,8,.15,2.44.35,2.91,0,4a13.64,13.64,0,0,0-1,3,7.77,7.77,0,0,0,0,2c0,.38,0,2.59,0,7,0,3.62-.06,3.47,0,4,.26,2.29.78,2.7,1,5,.19,2-.18,1.94,0,4,.22,2.53.77,2.61,1,5s-.31,2.63,0,5c.26,2,.66,2,1,4s.12,3,0,6,0,4,0,6c-.07,5.07-1.19,9.24-3,16-1.06,4-1.71,5.65-2,9-.06.64,0,.9,0,6,.05,7,.05,7.34,0,8a26.45,26.45,0,0,1-2,9c-2.09,4.76-4.46,5.36-5,9-.27,1.86.23,3.35,1,6,1.05,3.61,2.24,5.17,3,7,1.38,3.32.6,6.93-1,14-2,8.91-3.49,15.39-7,16-1.31.23-1.79-.57-5-2-4.17-1.86-5.33-1.4-11-3-6.52-1.83-5-2.45-13-5-4.05-1.29-6.32-1.74-8-4a11.52,11.52,0,0,1-2-5c-.31-2.13.26-2.64,0-4-.2-1-1-3.05-7-6-4.88-2.39-5.71-1.72-11-4a74,74,0,0,1-9-5c-4.14-2.51-5.23-3.47-6-5a11.75,11.75,0,0,1-1-6c.14-1.84.57-2.06,1-5,.37-2.55.54-3.84,0-5-.68-1.45-1.94-1.87-4-3-3.72-2-3.43-2.79-7-5-4.57-2.84-5.09-1.64-9-4-1.75-1-6.69-4.12-9-10C107.65,108.33,106.74,106,107.5,103.5Z"/><path class="cls-1" d="M150.5,231.5c-2.54.06-4.57-5.76-5-7a13.52,13.52,0,0,1-1-6,12.85,12.85,0,0,1,3-7c3.07-3.72,8-5.61,9-6,1.8-.69,3.69-1.17,5-3a4.64,4.64,0,0,0,1-3c-.16-1.75-1.65-2.63-3-4s-2.25-3.6-4-8c-1.09-2.73-1.81-5.1-3-9-1.08-3.53-1.47-5.13-3-7a8.09,8.09,0,0,0-4-3c-2.05-.58-2.72.42-5,0a9.45,9.45,0,0,1-5-3,9.71,9.71,0,0,1-3-6c-.07-1.05-.19-2.8,1-4a4.78,4.78,0,0,1,4-1c2.89.61,2.78,3.5,6,6,.59.46,3.4,1.31,9,3a59.69,59.69,0,0,1,8,3c1.84.85,3.12,1.57,4,3a8.44,8.44,0,0,1,1,4c.26,3.45-.82,4.57,0,6,.66,1.15,1.84,1.27,4,2,2.58.87,1.7,1,8,4,2.51,1.21,5.31,2.56,9,4a62.06,62.06,0,0,0,9,3c7.31,1.7,11.72.75,12,2,.2.91-2.08,1.69-7,5a85.93,85.93,0,0,0-9,7,61.85,61.85,0,0,0-6,6c-3.12,3.62-2.51,3.83-4,5-3,2.37-5.07,1.11-12,3a49.51,49.51,0,0,0-8,3c-3.5,1.59-5.25,2.38-7,4C152,229.83,151.84,231.47,150.5,231.5Z"/><polygon points="7 93 7 95 83 95 95.5 108.5 97.5 106.5 83.5 92.5 7 93"/><text class="cls-2" transform="translate(14 88.36)"><tspan class="cls-3">H</tspan><tspan x="10.59" y="0">isingen</tspan></text></g></svg>