<svg xmlns="http://www.w3.org/2000/svg" viewBox="0 0 207 266"><defs><style>.cls-1{fill:#fff;stroke:#000;stroke-miterlimit:10;}.cls-2{font-size:16px;font-family:MyriadPro-Regular, Myriad Pro;}.cls-3{letter-spacing:-0.01em;}.cls-4{letter-spacing:0em;}.cls-5{letter-spacing:0em;}.cls-6{letter-spacing:-0.01em;}.cls-7{letter-spacing:-0.01em;}.cls-8{letter-spacing:0em;}</style></defs><title>karta2</title><g id="karta2"><path class="cls-1" d="M16.5,141.5c-3-1.86-2-8.93,0-23,1.29-9,2.86-15.66,6-29,3.47-14.75.58-.41,7-22,.69-2.33,2.68-9.08,5-9,1.68.06,2.24,3.67,6,5,.62.22,2,.69,3,0a2.89,2.89,0,0,0,1-2c.31-2.17-.89-3.71-2-6-1-2-2-4.13-2-6,0-1.12.38-3.89,11-11,2.87-1.92,5.24-3.28,10-6,3.87-2.21,4.17-2.29,9-5,5.73-3.22,8.59-4.82,12-7,5.74-3.66,8.6-5.49,10-7,2-2.22,3.62-4.68,7-6a19.43,19.43,0,0,1,4-1,12.56,12.56,0,0,1,5,0c2.82.71,3.06,2.34,7,4,1.52.64,1.59.44,3,1,2.4.95,4.2,2.32,7,5,3.87,3.7,6.31,6,9,10,2.22,3.27,1.41,2.94,5,9s4.35,6.26,6,10a52.83,52.83,0,0,1,3,9c.58,2.6.43,3,1,5a24.89,24.89,0,0,0,4,8c1.72,2.23,2.41,2.19,10,8,4.83,3.7,5.56,4.49,6,5,2.4,2.76,1.64,3.19,5,8,2,2.84,3.33,4.23,4,7a7.14,7.14,0,0,1,0,4,4.89,4.89,0,0,1-2,3c-1.2.65-2.26.15-4,0s-3.23.23-6,1c-4.29,1.2-7.21,4.43-10,7-3.85,3.55-7,5.45-13,9a59.4,59.4,0,0,1-21,8c-8.33,1.34-9.23-.71-21,1-9.73,1.41-12.11,3.24-13,4a85.68,85.68,0,0,1-8,7c-1.79,1.32-3.26,2.26-5,2-2.19-.32-3.54-2.33-4-3-1.63-2.4-1-4.06-2-7-.49-1.44-1.6-4.53-4-6-2.21-1.36-4.92-1-11,1a100.85,100.85,0,0,0-13,5C26.42,139.16,18.84,143,16.5,141.5Z"/><path class="cls-1" d="M10.5,150.5c0-1.23-.07-2.88,1-4,1.39-1.45,3.47-.76,7-1,2.81-.19,4.71-.86,8-2,4.73-1.65,5.54-3,10-5,1.56-.7,4.39-1.43,10-3,6.87-1.92,7.5-1.84,9-3,1.73-1.33,2.88-2.94,5-3a4.79,4.79,0,0,1,3,1c1.67,1.36,1.53,3.45,2,7,.67,5,1.41,4.19,2,9,.45,3.64.74,6,0,9s-1.71,3.29-2,6c-.25,2.32.39,2.68,1,7,.52,3.71.84,6.15,0,9-.55,1.87-1.2,4.06-3,5-2.67,1.39-5.29-1.29-11-3a35.35,35.35,0,0,0-13-1c-3.69.44-7.13,2-14,5-5.62,2.49-8.43,3.73-12,6-3.86,2.46-6.3,4.61-7,4-.55-.48.48-2.18,2-6,.6-1.51,1.4-4,3-9,1.91-6,2.87-9,3-11a20.06,20.06,0,0,0-1-9C12.27,155.29,10.59,153.9,10.5,150.5Z"/><path class="cls-1" d="M5.5,199.5c.64-1.81,3.34-1.2,8-3,5.41-2.09,5.08-4.2,12-8a45.76,45.76,0,0,1,10-4c4.94-1.46,7.47-2.17,10-1,1,.47,2.21,1.32,5,6a73.15,73.15,0,0,1,5,10,179,179,0,0,1,6,17c2.18,7.54,2.55,10.74,5,16,1.63,3.51,2.45,5.26,4,7,2,2.26,3.62,2.94,4,5s-.48,4.43-2,5-2.44-1.26-6-2a11.2,11.2,0,0,0-5,0c-2.48.63-3.44,2-6,4a36.25,36.25,0,0,1-7,4c-5.34,2.27-6.87.38-16,2-5.09.9-5.89,1.71-8,1-2.74-.93-4.16-3.28-7-8a51.25,51.25,0,0,1-5-11,44.63,44.63,0,0,1-2-10c-.48-6.09.71-7.78,0-15a26.27,26.27,0,0,0-1-6C7.78,203.16,4.79,201.51,5.5,199.5Z"/><polygon points="196.5 188.5 196.5 190.5 82 191 66 175 68 174 83 189 196.5 188.5"/><text class="cls-2" transform="translate(113.75 185.36)">Öst<tspan class="cls-3" x="22.66" y="0">r</tspan><tspan x="27.81" y="0">a</tspan></text><text class="cls-2" transform="translate(100.33 203.69)"><tspan class="cls-4">G</tspan><tspan class="cls-5" x="10.42" y="0">ö</tspan><tspan class="cls-6" x="19.2" y="0">t</tspan><tspan x="24.4" y="0">ebo</tspan><tspan class="cls-7" x="50.3" y="0">r</tspan><tspan class="cls-8" x="55.41" y="0">g</tspan></text></g></svg>