<svg xmlns="http://www.w3.org/2000/svg" viewBox="0 0 321.54 225.53"><defs><style>.cls-1{fill:#b2b2b2;stroke:#000;stroke-miterlimit:10;}.cls-2{font-size:16px;font-family:MyriadPro-Regular, Myriad Pro;}.cls-3{letter-spacing:-0.03em;}.cls-4{letter-spacing:0em;}.cls-5{letter-spacing:-0.01em;}.cls-6{letter-spacing:0.01em;}.cls-7{letter-spacing:-0.01em;}.cls-8{letter-spacing:-0.01em;}</style></defs><title>karta4</title><g id="karta4"><path class="cls-1" d="M127.5,34.61c-.13-2,2.58-4.33,8-9,6.08-5.24,9.22-7.9,14-10s9.64-4.24,14-2a11.05,11.05,0,0,1,5,6c1.55,4.45-1.23,6.1-1,12,.22,5.52,2.91,10.29,5,14,2.73,4.84,4.43,5.78,4,8-.67,3.5-5.8,5.91-10,6-.89,0-5.58.12-8-3s0-6.16-2-9-6.13-1.55-13-3C137.12,43.26,127.81,39.33,127.5,34.61Z"/><path class="cls-1" d="M135.5,48.61c1.32-.16,1.51,2,4,3,3.7,1.42,6.29-2.3,9-1s1.27,5.92,5,9c1.71,1.41,3,1.25,5,2,5.82,2.18,8.59,8.68,10,12,3.15,7.39.7,9.7,4,24a57.06,57.06,0,0,0,2,7c2,5.42,3.55,7.06,6,12,4.87,9.79,2.26,10.64,6,15,2.09,2.43,4,3.4,9,9,2.19,2.42,2.64,3.13,3,4,1.6,3.83-.28,6.54-1,12-.36,2.74-1,7.85,1,13s5.11,6.31,6,12a10.18,10.18,0,0,1,0,5c-2.07,6.38-13.32,8-20,9-11.58,1.69-11.15-1.1-20,1-6.35,1.51-10.52,3.89-16,2-1-.36-4.46-1.54-5-4s2-3.69,4-8c1.44-3.08,1.68-5.65,2-9s.08-6-1-13c-1.87-12.09-2.81-18.13-4-21-2.46-6-4.53-7.29-4-11,.41-2.87,1.85-3.53,4-10,1.5-4.52,1.37-5.9,1-7a8.68,8.68,0,0,0-5-5c-2.06-.79-2.88-.1-4-1-1.64-1.32-2.07-4.59-1-7,1.17-2.63,3.34-2.48,10-7,3.63-2.46,4.56-3.57,5-5a6.87,6.87,0,0,0-1-6c-2.1-2.72-5.26-1.47-10-3-6.17-2-12-7.72-12-13,0-2.1.92-2,3-7C133.75,53.85,133.53,48.85,135.5,48.61Z"/><path class="cls-1" d="M124.5,159.61a16.17,16.17,0,0,1,2-2,15.42,15.42,0,0,1,3-2c2.36-1.18,3.63-1,4-2,.23-.62-.19-.85,0-2,.08-.47.27-1.61,1-2,1.1-.59,2.81.84,3,1,1.18,1,1.45,2.7,2,6s.35,4.32,0,5a5.31,5.31,0,0,1-2,2c-.23.16-4,2.56-8,1a9.1,9.1,0,0,1-3-2A9.42,9.42,0,0,1,124.5,159.61Z"/><path class="cls-1" d="M119.5,134.61c-2.7.48-6.32-4.61-8-9-2.39-6.27-2.07-14.43-2-16,.15-3,.54-5.33-1-7-1.21-1.32-3-1.58-6-2-3.59-.51-5,.06-8-1-1.19-.42-3-1-3-2-.06-1.22,2.78-1.39,5-4,.33-.39,2.84-3.41,2-6-.77-2.36-3.5-1.8-6-5-.49-.63-2.46-3.15-2-6,.26-1.6,1.2-2.76,3-5,2.08-2.58,3.22-3.13,3-4-.28-1.14-2.58-1.56-5-2-3.23-.59-4.41-.19-5-1-.79-1.09.43-3,2-6,4.63-8.7,3.28-9.18,6-12,1-1.06,4.27-4.43,9-5,2.61-.31,2.88.56,5,0,3.26-.86,3.56-3.17,8-6,.73-.46,4.83-3.08,6-2,1,.9-1.19,3.35,0,6,.62,1.38,1.46,1.29,3,3a13.57,13.57,0,0,1,3,6,12.94,12.94,0,0,1,0,8c-1.44,3.78-4.17,3.58-6,8a12.85,12.85,0,0,0-1,5,13.84,13.84,0,0,0,3,8c1.21,1.67,3.81,3.45,9,7,3.23,2.21,4.39,2.8,6,3,2.67.33,4.61-.68,5,0,.48.84-2,3.09-3,4-4.14,3.77-5.75,3.29-8,6a14.8,14.8,0,0,0-3,7,16.93,16.93,0,0,0,0,6c.4,2.18.89,2.37,2,6,1,3.12,1.43,4.71,1,6-.77,2.32-3.2,3.58-4,4a15.92,15.92,0,0,1-3,1C122.08,129.2,122,134.16,119.5,134.61Z"/><path class="cls-1" d="M48,70.11c1.12-.76,1.92-.56,4-1a7.28,7.28,0,0,0,3-1,13.41,13.41,0,0,0,2-2c.59-.71.74-1,1-1,.6.06.93,1.86,1,3a7.48,7.48,0,0,1-1,5c-1.85,2.77-5.21,3-6,3a5.09,5.09,0,0,1-4-1,3.67,3.67,0,0,1-1-4A2.81,2.81,0,0,1,48,70.11Z"/><path class="cls-1" d="M55.5,80.61a5.38,5.38,0,0,1,4-1c1,0,3.52.11,5,2a5.63,5.63,0,0,1,1,4c-.27,3.71-3.52,5.72-4,6-1,.61-2.52,1.5-4,1-2.27-.77-2.75-4.24-3-6S53.88,82.1,55.5,80.61Z"/><path class="cls-1" d="M40.5,73.61a32.35,32.35,0,0,1,4,4,37.45,37.45,0,0,1,4,6,23.14,23.14,0,0,1,2,4,11.11,11.11,0,0,1,1,5c-.16,1.72-.81,1.9-3,6-1.86,3.49-1.82,4.17-3,5a7.1,7.1,0,0,1-5,1c-.74-.11-2.57-.49-7-5-3.48-3.54-5.22-5.31-6-8a10.8,10.8,0,0,1,0-7c.8-2.06,2.22-3.36,4-5a30,30,0,0,1,4-3C37.52,75.26,39.27,74.27,40.5,73.61Z"/><path class="cls-1" d="M17.5,85.61c2.45-.15,2.66-.23,3,0,1.54,1.06,1.41,5.77-1,7a3.47,3.47,0,0,1-3,0c-1.54-.78-1.44-2.48-3-3-.73-.24-.82.1-2,0-.59,0-2.91-.25-4-2a3.57,3.57,0,0,1,0-4,3,3,0,0,1,3-1c1.57.45,1.3,2.24,3,3C14,85.82,15.16,85.76,17.5,85.61Z"/><path class="cls-1" d="M56.5,101.61a10.9,10.9,0,0,1,7-2c1.67,0,3,0,4,1a3.58,3.58,0,0,1,1,3c-.29,1.7-1.85,1.69-3,4-.68,1.38-.26,1.63-1,3a6.45,6.45,0,0,1-3,3,6.05,6.05,0,0,1-6-1,6.76,6.76,0,0,1-2-7A7.62,7.62,0,0,1,56.5,101.61Z"/><path class="cls-1" d="M74.5,113.61c1.41-.28,2.7,1.57,3,2a6.18,6.18,0,0,1,1,4c-.06,1.16-.12,2.41-1,3-1.13.75-3,0-4-1-1.77-1.75-1.13-4.46-1-5S73.15,113.88,74.5,113.61Z"/><path class="cls-1" d="M88.5,108.61a4.7,4.7,0,0,1,4,0,4.16,4.16,0,0,1,2,5c-.88,2-3.49,2.29-5,2-2-.38-4.18-2.1-4-4S88.11,108.76,88.5,108.61Z"/><path class="cls-1" d="M19.5,104.61c1-.36,2,0,5,2,4.51,3,7.42,5,7,6-.57,1.36-6.89-.35-9-1-4.45-1.38-4.89-2.61-5-3A3.61,3.61,0,0,1,19.5,104.61Z"/><path class="cls-1" d="M17.5,115.61a6.2,6.2,0,0,1,5,0c.22.08,4.08,1.59,4,4a3.12,3.12,0,0,1-1,2,6.09,6.09,0,0,1-7,1c-1.77-.94-3.57-3.15-3-5A3.7,3.7,0,0,1,17.5,115.61Z"/><path class="cls-1" d="M25.5,128.61c-.66-1.46,2.83-4.51,5-6a18.17,18.17,0,0,1,7-3,16.69,16.69,0,0,1,10,1c2,.88,4.81,2.14,6,5,1,2.41.31,4.7-1,9-.2.65-1.13,2.76-3,7-1.22,2.77-1.75,3.89-3,5a7.53,7.53,0,0,1-4,2,8,8,0,0,1-8-5c-.94-2.33,1.73-3.85,2-9a4.85,4.85,0,0,0,0-2,4.74,4.74,0,0,0-3-3c-1.67-.57-2.29.3-5,0C27,129.44,25.82,129.31,25.5,128.61Z"/><path class="cls-1" d="M20.5,142.61a3.91,3.91,0,0,1,3-3,4.11,4.11,0,0,1,3,1,8.22,8.22,0,0,1,3,5c.43,1.68.84,3.28,0,5a5.51,5.51,0,0,1-4,3c-.32,0-2.91.44-4-1s.58-2.78,0-6C21.11,144.43,20.19,144.06,20.5,142.61Z"/><path class="cls-1" d="M51.5,147.61c.49-1.79,1.6-2.22,3-4,1.65-2.09.84-2.42,3-6,1.87-3.1,3-3.77,4-4a4.55,4.55,0,0,1,2,0c.29.06,2.43.53,3,2,.34.86-.14,1.38-1,4a13.66,13.66,0,0,0-1,4c.11,2.06,1.37,2.22,2,5a7.23,7.23,0,0,1,0,4,6.24,6.24,0,0,1-2,3c-2.19,1.76-5,1.19-6,1-3-.59-6.23-2.8-7-6A6.11,6.11,0,0,1,51.5,147.61Z"/><path class="cls-1" d="M40.5,173.61a46,46,0,0,1,3-7,9.69,9.69,0,0,1,3-4,3.79,3.79,0,0,1,3-1,3.45,3.45,0,0,1,2,2c1,2,.47,3.5,0,8-.51,4.95-.23,6.22,0,7,.62,2.06,1.27,1.86,2,4a13,13,0,0,1,0,8c-.62,2-1.21,3.93-3,5-2.78,1.66-6.88.36-9-2-1.31-1.46-1.55-3-2-6A33.13,33.13,0,0,1,40.5,173.61Z"/><path class="cls-1" d="M37.5,197.61a3.63,3.63,0,0,1,4,0c2,1.32,1.65,4.35,1,6-.08.22-1.23,3-3,3s-2.7-2.71-3-4C36.33,201.85,35.67,199,37.5,197.61Z"/><path class="cls-1" d="M53.5,205.61c1-.59,2.86-1,4,0,1.35,1.16,1,3.6,0,5-1.47,2-4.8,2.37-6,1S51.32,206.84,53.5,205.61Z"/><polygon points="200.39 151.61 213.65 136.61 298.5 136.61 298.5 134.61 212.76 134.61 199.5 149.61 200.39 151.61"/><text class="cls-2" transform="translate(232.5 131.64)"><tspan class="cls-3">V</tspan><tspan class="cls-4" x="8.4" y="0">äst</tspan><tspan class="cls-5" x="27.74" y="0">r</tspan><tspan x="32.9" y="0">a</tspan></text><text class="cls-2" transform="translate(222.17 150.64)"><tspan class="cls-6">G</tspan><tspan x="10.42" y="0">ö</tspan><tspan class="cls-7" x="19.2" y="0">t</tspan><tspan x="24.4" y="0">ebo</tspan><tspan class="cls-8" x="50.3" y="0">r</tspan><tspan x="55.41" y="0">g</tspan></text></g></svg>