<svg xmlns="http://www.w3.org/2000/svg" viewBox="0 0 171.53 123.52"><defs><style>.cls-1{font-size:16px;font-family:MyriadPro-Regular, Myriad Pro;}.cls-2{letter-spacing:-0.01em;}.cls-3{letter-spacing:0em;}.cls-4{letter-spacing:0em;}</style></defs><title>karta3</title><g id="Karta3"><path d="M14.54,28.61c.12-3.58,2.75-6.38,8-12,3.93-4.19,5.93-6.28,8-6,3.51.48,5.37,6.1,6,8,1.19,3.58.9,5.93,1,11a117.37,117.37,0,0,0,1,13c2,12.46,9.17,16.3,7,20-2.74,4.69-15.88,1.29-17,1-3.4-.88-7.09-1.84-9-5-1.06-1.76-.67-2.72-1-10-.24-5.55-.36-8.33-1-11C16.17,31.78,14.44,31.81,14.54,28.61Z"/><polygon points="30.54 64.61 53.54 112.61 156.54 112.61 156.54 110.61 55.04 111.11 31.92 64.36 30.54 64.61"/><text class="cls-1" transform="translate(73.88 108.97)"><tspan class="cls-2">C</tspan><tspan x="9.1" y="0">e</tspan><tspan class="cls-3" x="17.12" y="0">n</tspan><tspan class="cls-4" x="25.94" y="0">trum</tspan></text></g></svg>