<svg xmlns="http://www.w3.org/2000/svg" width="149.53mm" height="25.05mm" viewBox="0 0 423.85 71.01"><title>Rityta 3</title><path d="M19.1,44.83,13.74,70.11H0L13.92,4.24H30.1q10.68,0,16,4.59T51.5,22.3a20.19,20.19,0,0,1-3.74,12.24A21.85,21.85,0,0,1,37,42.13l11.76,28h-15L24.47,44.83Zm2.39-11.35H25q5.9,0,9.19-2.57c2.19-1.71,3.29-4.33,3.29-7.84a6.94,6.94,0,0,0-2.14-5.54q-2.15-1.85-6.74-1.85H25.28Z"/><path d="M67.17,71a12.6,12.6,0,0,1-10.43-4.8q-3.81-4.8-3.81-13.45a45.31,45.31,0,0,1,3.25-17,31.12,31.12,0,0,1,8.51-12.52,17.6,17.6,0,0,1,11.58-4.44,14.49,14.49,0,0,1,7.55,1.89,12.6,12.6,0,0,1,4.93,5.5h.37l2.56-6.45h10.46L91.41,70.11H81.1l.63-6.53h-.18Q75.51,71,67.17,71Zm5.32-11q3.11,0,6-3a21.86,21.86,0,0,0,4.64-8.18,36.17,36.17,0,0,0,1.76-11.69,8,8,0,0,0-1.73-5.29,5.66,5.66,0,0,0-4.58-2.1c-2,0-4,1.08-5.83,3.25a23.85,23.85,0,0,0-4.42,8.56,35.39,35.39,0,0,0-1.64,10.54c0,2.64.5,4.63,1.51,5.95A5.08,5.08,0,0,0,72.49,60.06Z"/><path d="M117.22,71a12.57,12.57,0,0,1-10.43-4.82Q103,61.36,103,52.67A44.88,44.88,0,0,1,106.2,35.8a31.45,31.45,0,0,1,8.49-12.53,17.54,17.54,0,0,1,11.63-4.48,11.73,11.73,0,0,1,6.37,1.67,16.14,16.14,0,0,1,5.07,5.72h.36l.09-1.26a54,54,0,0,1,1.13-8.79L142.77,0h13.56L141.46,70.11H131.14l.63-6.53h-.18a21,21,0,0,1-6.69,5.67A16.87,16.87,0,0,1,117.22,71Zm5.68-11q3,0,5.79-3.09a22.63,22.63,0,0,0,4.52-8.22,34.7,34.7,0,0,0,1.72-11A9.13,9.13,0,0,0,133.24,32a5.54,5.54,0,0,0-4.62-2.17c-2.05,0-4,1.08-5.84,3.25a23.85,23.85,0,0,0-4.41,8.56,35.4,35.4,0,0,0-1.65,10.54Q116.72,60.07,122.9,60.06Z"/><path d="M164.6,70.11H151l10.68-50.38h13.56Zm-.72-62.18A7.78,7.78,0,0,1,166,2a8.57,8.57,0,0,1,6.06-2,7.79,7.79,0,0,1,5,1.4,4.88,4.88,0,0,1,1.71,4,8.42,8.42,0,0,1-2,5.83q-2,2.24-6.12,2.23Q163.88,13.47,163.88,7.93Z"/><path d="M221.84,38.75a42.06,42.06,0,0,1-3.18,16.85A25.43,25.43,0,0,1,209.49,67a24.86,24.86,0,0,1-14.23,4q-8.79,0-14-5.29T176,51.63a43.08,43.08,0,0,1,3.22-17.09,26,26,0,0,1,9.31-11.63,24.74,24.74,0,0,1,14.24-4.12q8.82,0,14,5.32T221.84,38.75Zm-13.65,0q0-8.88-6.45-8.88a8.29,8.29,0,0,0-6.06,2.75,20.26,20.26,0,0,0-4.37,8.07,36.08,36.08,0,0,0-1.69,10.94q0,8.34,6.76,8.34a8.32,8.32,0,0,0,6.09-2.77,18.77,18.77,0,0,0,4.21-7.7A36.85,36.85,0,0,0,208.19,38.75Z"/><path d="M264,50.64q0,9.42-6.67,14.9T239.22,71q-10,0-16-4.06V54.61q8.7,4.86,16.13,4.86c3.37,0,6-.63,7.89-1.91A6,6,0,0,0,250,52.31a8.93,8.93,0,0,0-.61-3.4,9.72,9.72,0,0,0-1.74-2.73,46.93,46.93,0,0,0-5.58-4.59q-6.23-4.47-8.74-8.83a18.49,18.49,0,0,1-2.53-9.42A19.46,19.46,0,0,1,233.64,13a18.88,18.88,0,0,1,8-7.12,26.6,26.6,0,0,1,11.87-2.54,36.55,36.55,0,0,1,17.89,4.46l-4.91,10.5a30.61,30.61,0,0,0-13-3.34,9.17,9.17,0,0,0-6.13,2A6.68,6.68,0,0,0,245,22.3a8,8,0,0,0,1.48,4.8q1.48,2.05,6.67,5.43a26.66,26.66,0,0,1,8.16,7.95A18.88,18.88,0,0,1,264,50.64Z"/><path d="M288.18,60.06a22.23,22.23,0,0,0,7.3-1.58V68.62a27.66,27.66,0,0,1-12,2.39c-4.5,0-7.82-1-9.93-2.84s-3.18-4.82-3.18-8.79a26.77,26.77,0,0,1,.54-5l5.18-24.29h-6.85l1.31-6.62,8.83-3.79L285.34,9h8.74l-2.21,10.72h12.75l-2.25,10.32h-12.7l-5.19,24.29a12.38,12.38,0,0,0-.27,2.39Q284.21,60.06,288.18,60.06Z"/><path d="M315.74,71a12.6,12.6,0,0,1-10.43-4.8q-3.81-4.8-3.81-13.45a45.31,45.31,0,0,1,3.25-17,31,31,0,0,1,8.52-12.52,17.56,17.56,0,0,1,11.57-4.44,14.49,14.49,0,0,1,7.55,1.89,12.68,12.68,0,0,1,4.94,5.5h.36l2.56-6.45h10.46L340,70.11H329.67l.63-6.53h-.18Q324.07,71,315.74,71Zm5.32-11q3.1,0,6-3a21.86,21.86,0,0,0,4.64-8.18,35.9,35.9,0,0,0,1.76-11.69,8,8,0,0,0-1.73-5.29,5.65,5.65,0,0,0-4.58-2.1q-3.06,0-5.83,3.25a23.85,23.85,0,0,0-4.42,8.56,35.39,35.39,0,0,0-1.64,10.54c0,2.64.5,4.63,1.51,5.95A5.08,5.08,0,0,0,321.06,60.06Z"/><path d="M371.25,60.06a22.13,22.13,0,0,0,7.29-1.58V68.62a27.61,27.61,0,0,1-12,2.39q-6.76,0-9.94-2.84t-3.17-8.79a26.77,26.77,0,0,1,.54-5l5.18-24.29h-6.85l1.31-6.62,8.83-3.79,6-10.63h8.74l-2.21,10.72h12.75l-2.25,10.32H372.73l-5.18,24.29a12.38,12.38,0,0,0-.27,2.39Q367.28,60.06,371.25,60.06Z"/><path d="M419.39,53.48q0,8.48-5.61,13T398.17,71a45.79,45.79,0,0,1-8.4-.68,24.88,24.88,0,0,1-6.69-2.25V56.91A28.59,28.59,0,0,0,397.45,61a10.86,10.86,0,0,0,5.9-1.46,4.53,4.53,0,0,0,2.3-4A4.63,4.63,0,0,0,404,52a33.07,33.07,0,0,0-5.9-3.87c-3.64-2.05-6.17-4.08-7.62-6.11a12.09,12.09,0,0,1-2.16-7.19q0-7.65,5-11.87t14.22-4.21a31.75,31.75,0,0,1,16.35,4.28l-4.46,9.69Q413.09,29,407.77,29a6.85,6.85,0,0,0-4.15,1.15A3.65,3.65,0,0,0,402,33.21a4,4,0,0,0,1.45,3.08,26.18,26.18,0,0,0,5.4,3.36,22.62,22.62,0,0,1,8,6.17A12.54,12.54,0,0,1,419.39,53.48Z"/></svg>